<?xml version="1.0" encoding="utf-8" standalone="no"?>
<!DOCTYPE svg PUBLIC "-//W3C//DTD SVG 1.1//EN"
  "http://www.w3.org/Graphics/SVG/1.1/DTD/svg11.dtd">
<svg xmlns:xlink="http://www.w3.org/1999/xlink" width="460.8pt" height="345.6pt" viewBox="0 0 460.8 345.6" xmlns="http://www.w3.org/2000/svg" version="1.1">
 <metadata>
  <rdf:RDF xmlns:dc="http://purl.org/dc/elements/1.1/" xmlns:cc="http://creativecommons.org/ns#" xmlns:rdf="http://www.w3.org/1999/02/22-rdf-syntax-ns#">
   <cc:Work>
    <dc:type rdf:resource="http://purl.org/dc/dcmitype/StillImage"/>
    <dc:date>2023-10-28T01:23:24.648432</dc:date>
    <dc:format>image/svg+xml</dc:format>
    <dc:creator>
     <cc:Agent>
      <dc:title>Matplotlib v3.8.0, https://matplotlib.org/</dc:title>
     </cc:Agent>
    </dc:creator>
   </cc:Work>
  </rdf:RDF>
 </metadata>
 <defs>
  <style type="text/css">*{stroke-linejoin: round; stroke-linecap: butt}</style>
 </defs>
 <g id="figure_1">
  <g id="patch_1">
   <path d="M 0 345.6 
L 460.8 345.6 
L 460.8 0 
L 0 0 
L 0 345.6 
z
" style="fill: none; opacity: 0"/>
  </g>
  <g id="axes_1">
   <g id="patch_2">
    <path d="M 57.6 307.584 
L 414.72 307.584 
L 414.72 41.472 
L 57.6 41.472 
L 57.6 307.584 
z
" style="fill: none"/>
   </g>
   <g id="matplotlib.axis_1">
    <g id="xtick_1">
     <g id="line2d_1">
      <defs>
       <path id="mc2d4c828be" d="M 0 0 
L 0 3.5 
" style="stroke: #000000; stroke-width: 0.8"/>
      </defs>
      <g>
       <use xlink:href="#mc2d4c828be" x="73.813365" y="307.584" style="stroke: #000000; stroke-width: 0.8"/>
      </g>
     </g>
     <g id="text_1">
      <!-- 0 -->
      <g transform="translate(70.632115 322.182437) scale(0.1 -0.1)">
       <defs>
        <path id="DejaVuSans-30" d="M 2034 4250 
Q 1547 4250 1301 3770 
Q 1056 3291 1056 2328 
Q 1056 1369 1301 889 
Q 1547 409 2034 409 
Q 2525 409 2770 889 
Q 3016 1369 3016 2328 
Q 3016 3291 2770 3770 
Q 2525 4250 2034 4250 
z
M 2034 4750 
Q 2819 4750 3233 4129 
Q 3647 3509 3647 2328 
Q 3647 1150 3233 529 
Q 2819 -91 2034 -91 
Q 1250 -91 836 529 
Q 422 1150 422 2328 
Q 422 3509 836 4129 
Q 1250 4750 2034 4750 
z
" transform="scale(0.015625)"/>
       </defs>
       <use xlink:href="#DejaVuSans-30"/>
      </g>
     </g>
    </g>
    <g id="xtick_2">
     <g id="line2d_2">
      <g>
       <use xlink:href="#mc2d4c828be" x="122.220138" y="307.584" style="stroke: #000000; stroke-width: 0.8"/>
      </g>
     </g>
     <g id="text_2">
      <!-- 2500 -->
      <g transform="translate(109.495138 322.182437) scale(0.1 -0.1)">
       <defs>
        <path id="DejaVuSans-32" d="M 1228 531 
L 3431 531 
L 3431 0 
L 469 0 
L 469 531 
Q 828 903 1448 1529 
Q 2069 2156 2228 2338 
Q 2531 2678 2651 2914 
Q 2772 3150 2772 3378 
Q 2772 3750 2511 3984 
Q 2250 4219 1831 4219 
Q 1534 4219 1204 4116 
Q 875 4013 500 3803 
L 500 4441 
Q 881 4594 1212 4672 
Q 1544 4750 1819 4750 
Q 2544 4750 2975 4387 
Q 3406 4025 3406 3419 
Q 3406 3131 3298 2873 
Q 3191 2616 2906 2266 
Q 2828 2175 2409 1742 
Q 1991 1309 1228 531 
z
" transform="scale(0.015625)"/>
        <path id="DejaVuSans-35" d="M 691 4666 
L 3169 4666 
L 3169 4134 
L 1269 4134 
L 1269 2991 
Q 1406 3038 1543 3061 
Q 1681 3084 1819 3084 
Q 2600 3084 3056 2656 
Q 3513 2228 3513 1497 
Q 3513 744 3044 326 
Q 2575 -91 1722 -91 
Q 1428 -91 1123 -41 
Q 819 9 494 109 
L 494 744 
Q 775 591 1075 516 
Q 1375 441 1709 441 
Q 2250 441 2565 725 
Q 2881 1009 2881 1497 
Q 2881 1984 2565 2268 
Q 2250 2553 1709 2553 
Q 1456 2553 1204 2497 
Q 953 2441 691 2322 
L 691 4666 
z
" transform="scale(0.015625)"/>
       </defs>
       <use xlink:href="#DejaVuSans-32"/>
       <use xlink:href="#DejaVuSans-35" x="63.623047"/>
       <use xlink:href="#DejaVuSans-30" x="127.246094"/>
       <use xlink:href="#DejaVuSans-30" x="190.869141"/>
      </g>
     </g>
    </g>
    <g id="xtick_3">
     <g id="line2d_3">
      <g>
       <use xlink:href="#mc2d4c828be" x="170.626911" y="307.584" style="stroke: #000000; stroke-width: 0.8"/>
      </g>
     </g>
     <g id="text_3">
      <!-- 5000 -->
      <g transform="translate(157.901911 322.182437) scale(0.1 -0.1)">
       <use xlink:href="#DejaVuSans-35"/>
       <use xlink:href="#DejaVuSans-30" x="63.623047"/>
       <use xlink:href="#DejaVuSans-30" x="127.246094"/>
       <use xlink:href="#DejaVuSans-30" x="190.869141"/>
      </g>
     </g>
    </g>
    <g id="xtick_4">
     <g id="line2d_4">
      <g>
       <use xlink:href="#mc2d4c828be" x="219.033684" y="307.584" style="stroke: #000000; stroke-width: 0.8"/>
      </g>
     </g>
     <g id="text_4">
      <!-- 7500 -->
      <g transform="translate(206.308684 322.182437) scale(0.1 -0.1)">
       <defs>
        <path id="DejaVuSans-37" d="M 525 4666 
L 3525 4666 
L 3525 4397 
L 1831 0 
L 1172 0 
L 2766 4134 
L 525 4134 
L 525 4666 
z
" transform="scale(0.015625)"/>
       </defs>
       <use xlink:href="#DejaVuSans-37"/>
       <use xlink:href="#DejaVuSans-35" x="63.623047"/>
       <use xlink:href="#DejaVuSans-30" x="127.246094"/>
       <use xlink:href="#DejaVuSans-30" x="190.869141"/>
      </g>
     </g>
    </g>
    <g id="xtick_5">
     <g id="line2d_5">
      <g>
       <use xlink:href="#mc2d4c828be" x="267.440457" y="307.584" style="stroke: #000000; stroke-width: 0.8"/>
      </g>
     </g>
     <g id="text_5">
      <!-- 10000 -->
      <g transform="translate(251.534207 322.182437) scale(0.1 -0.1)">
       <defs>
        <path id="DejaVuSans-31" d="M 794 531 
L 1825 531 
L 1825 4091 
L 703 3866 
L 703 4441 
L 1819 4666 
L 2450 4666 
L 2450 531 
L 3481 531 
L 3481 0 
L 794 0 
L 794 531 
z
" transform="scale(0.015625)"/>
       </defs>
       <use xlink:href="#DejaVuSans-31"/>
       <use xlink:href="#DejaVuSans-30" x="63.623047"/>
       <use xlink:href="#DejaVuSans-30" x="127.246094"/>
       <use xlink:href="#DejaVuSans-30" x="190.869141"/>
       <use xlink:href="#DejaVuSans-30" x="254.492188"/>
      </g>
     </g>
    </g>
    <g id="xtick_6">
     <g id="line2d_6">
      <g>
       <use xlink:href="#mc2d4c828be" x="315.84723" y="307.584" style="stroke: #000000; stroke-width: 0.8"/>
      </g>
     </g>
     <g id="text_6">
      <!-- 12500 -->
      <g transform="translate(299.94098 322.182437) scale(0.1 -0.1)">
       <use xlink:href="#DejaVuSans-31"/>
       <use xlink:href="#DejaVuSans-32" x="63.623047"/>
       <use xlink:href="#DejaVuSans-35" x="127.246094"/>
       <use xlink:href="#DejaVuSans-30" x="190.869141"/>
       <use xlink:href="#DejaVuSans-30" x="254.492188"/>
      </g>
     </g>
    </g>
    <g id="xtick_7">
     <g id="line2d_7">
      <g>
       <use xlink:href="#mc2d4c828be" x="364.254003" y="307.584" style="stroke: #000000; stroke-width: 0.8"/>
      </g>
     </g>
     <g id="text_7">
      <!-- 15000 -->
      <g transform="translate(348.347753 322.182437) scale(0.1 -0.1)">
       <use xlink:href="#DejaVuSans-31"/>
       <use xlink:href="#DejaVuSans-35" x="63.623047"/>
       <use xlink:href="#DejaVuSans-30" x="127.246094"/>
       <use xlink:href="#DejaVuSans-30" x="190.869141"/>
       <use xlink:href="#DejaVuSans-30" x="254.492188"/>
      </g>
     </g>
    </g>
    <g id="xtick_8">
     <g id="line2d_8">
      <g>
       <use xlink:href="#mc2d4c828be" x="412.660776" y="307.584" style="stroke: #000000; stroke-width: 0.8"/>
      </g>
     </g>
     <g id="text_8">
      <!-- 17500 -->
      <g transform="translate(396.754526 322.182437) scale(0.1 -0.1)">
       <use xlink:href="#DejaVuSans-31"/>
       <use xlink:href="#DejaVuSans-37" x="63.623047"/>
       <use xlink:href="#DejaVuSans-35" x="127.246094"/>
       <use xlink:href="#DejaVuSans-30" x="190.869141"/>
       <use xlink:href="#DejaVuSans-30" x="254.492188"/>
      </g>
     </g>
    </g>
    <g id="text_9">
     <!-- array size -->
     <g transform="translate(211.765469 335.860562) scale(0.1 -0.1)">
      <defs>
       <path id="DejaVuSans-61" d="M 2194 1759 
Q 1497 1759 1228 1600 
Q 959 1441 959 1056 
Q 959 750 1161 570 
Q 1363 391 1709 391 
Q 2188 391 2477 730 
Q 2766 1069 2766 1631 
L 2766 1759 
L 2194 1759 
z
M 3341 1997 
L 3341 0 
L 2766 0 
L 2766 531 
Q 2569 213 2275 61 
Q 1981 -91 1556 -91 
Q 1019 -91 701 211 
Q 384 513 384 1019 
Q 384 1609 779 1909 
Q 1175 2209 1959 2209 
L 2766 2209 
L 2766 2266 
Q 2766 2663 2505 2880 
Q 2244 3097 1772 3097 
Q 1472 3097 1187 3025 
Q 903 2953 641 2809 
L 641 3341 
Q 956 3463 1253 3523 
Q 1550 3584 1831 3584 
Q 2591 3584 2966 3190 
Q 3341 2797 3341 1997 
z
" transform="scale(0.015625)"/>
       <path id="DejaVuSans-72" d="M 2631 2963 
Q 2534 3019 2420 3045 
Q 2306 3072 2169 3072 
Q 1681 3072 1420 2755 
Q 1159 2438 1159 1844 
L 1159 0 
L 581 0 
L 581 3500 
L 1159 3500 
L 1159 2956 
Q 1341 3275 1631 3429 
Q 1922 3584 2338 3584 
Q 2397 3584 2469 3576 
Q 2541 3569 2628 3553 
L 2631 2963 
z
" transform="scale(0.015625)"/>
       <path id="DejaVuSans-79" d="M 2059 -325 
Q 1816 -950 1584 -1140 
Q 1353 -1331 966 -1331 
L 506 -1331 
L 506 -850 
L 844 -850 
Q 1081 -850 1212 -737 
Q 1344 -625 1503 -206 
L 1606 56 
L 191 3500 
L 800 3500 
L 1894 763 
L 2988 3500 
L 3597 3500 
L 2059 -325 
z
" transform="scale(0.015625)"/>
       <path id="DejaVuSans-20" transform="scale(0.015625)"/>
       <path id="DejaVuSans-73" d="M 2834 3397 
L 2834 2853 
Q 2591 2978 2328 3040 
Q 2066 3103 1784 3103 
Q 1356 3103 1142 2972 
Q 928 2841 928 2578 
Q 928 2378 1081 2264 
Q 1234 2150 1697 2047 
L 1894 2003 
Q 2506 1872 2764 1633 
Q 3022 1394 3022 966 
Q 3022 478 2636 193 
Q 2250 -91 1575 -91 
Q 1294 -91 989 -36 
Q 684 19 347 128 
L 347 722 
Q 666 556 975 473 
Q 1284 391 1588 391 
Q 1994 391 2212 530 
Q 2431 669 2431 922 
Q 2431 1156 2273 1281 
Q 2116 1406 1581 1522 
L 1381 1569 
Q 847 1681 609 1914 
Q 372 2147 372 2553 
Q 372 3047 722 3315 
Q 1072 3584 1716 3584 
Q 2034 3584 2315 3537 
Q 2597 3491 2834 3397 
z
" transform="scale(0.015625)"/>
       <path id="DejaVuSans-69" d="M 603 3500 
L 1178 3500 
L 1178 0 
L 603 0 
L 603 3500 
z
M 603 4863 
L 1178 4863 
L 1178 4134 
L 603 4134 
L 603 4863 
z
" transform="scale(0.015625)"/>
       <path id="DejaVuSans-7a" d="M 353 3500 
L 3084 3500 
L 3084 2975 
L 922 459 
L 3084 459 
L 3084 0 
L 275 0 
L 275 525 
L 2438 3041 
L 353 3041 
L 353 3500 
z
" transform="scale(0.015625)"/>
       <path id="DejaVuSans-65" d="M 3597 1894 
L 3597 1613 
L 953 1613 
Q 991 1019 1311 708 
Q 1631 397 2203 397 
Q 2534 397 2845 478 
Q 3156 559 3463 722 
L 3463 178 
Q 3153 47 2828 -22 
Q 2503 -91 2169 -91 
Q 1331 -91 842 396 
Q 353 884 353 1716 
Q 353 2575 817 3079 
Q 1281 3584 2069 3584 
Q 2775 3584 3186 3129 
Q 3597 2675 3597 1894 
z
M 3022 2063 
Q 3016 2534 2758 2815 
Q 2500 3097 2075 3097 
Q 1594 3097 1305 2825 
Q 1016 2553 972 2059 
L 3022 2063 
z
" transform="scale(0.015625)"/>
      </defs>
      <use xlink:href="#DejaVuSans-61"/>
      <use xlink:href="#DejaVuSans-72" x="61.279297"/>
      <use xlink:href="#DejaVuSans-72" x="100.642578"/>
      <use xlink:href="#DejaVuSans-61" x="141.755859"/>
      <use xlink:href="#DejaVuSans-79" x="203.035156"/>
      <use xlink:href="#DejaVuSans-20" x="262.214844"/>
      <use xlink:href="#DejaVuSans-73" x="294.001953"/>
      <use xlink:href="#DejaVuSans-69" x="346.101562"/>
      <use xlink:href="#DejaVuSans-7a" x="373.884766"/>
      <use xlink:href="#DejaVuSans-65" x="426.375"/>
     </g>
    </g>
   </g>
   <g id="matplotlib.axis_2">
    <g id="ytick_1">
     <g id="line2d_9">
      <defs>
       <path id="m74fb44bf63" d="M 0 0 
L -3.5 0 
" style="stroke: #000000; stroke-width: 0.8"/>
      </defs>
      <g>
       <use xlink:href="#m74fb44bf63" x="57.6" y="295.770629" style="stroke: #000000; stroke-width: 0.8"/>
      </g>
     </g>
     <g id="text_10">
      <!-- 0 -->
      <g transform="translate(44.2375 299.569848) scale(0.1 -0.1)">
       <use xlink:href="#DejaVuSans-30"/>
      </g>
     </g>
    </g>
    <g id="ytick_2">
     <g id="line2d_10">
      <g>
       <use xlink:href="#m74fb44bf63" x="57.6" y="243.431916" style="stroke: #000000; stroke-width: 0.8"/>
      </g>
     </g>
     <g id="text_11">
      <!-- 10000 -->
      <g transform="translate(18.7875 247.231135) scale(0.1 -0.1)">
       <use xlink:href="#DejaVuSans-31"/>
       <use xlink:href="#DejaVuSans-30" x="63.623047"/>
       <use xlink:href="#DejaVuSans-30" x="127.246094"/>
       <use xlink:href="#DejaVuSans-30" x="190.869141"/>
       <use xlink:href="#DejaVuSans-30" x="254.492188"/>
      </g>
     </g>
    </g>
    <g id="ytick_3">
     <g id="line2d_11">
      <g>
       <use xlink:href="#m74fb44bf63" x="57.6" y="191.093203" style="stroke: #000000; stroke-width: 0.8"/>
      </g>
     </g>
     <g id="text_12">
      <!-- 20000 -->
      <g transform="translate(18.7875 194.892421) scale(0.1 -0.1)">
       <use xlink:href="#DejaVuSans-32"/>
       <use xlink:href="#DejaVuSans-30" x="63.623047"/>
       <use xlink:href="#DejaVuSans-30" x="127.246094"/>
       <use xlink:href="#DejaVuSans-30" x="190.869141"/>
       <use xlink:href="#DejaVuSans-30" x="254.492188"/>
      </g>
     </g>
    </g>
    <g id="ytick_4">
     <g id="line2d_12">
      <g>
       <use xlink:href="#m74fb44bf63" x="57.6" y="138.75449" style="stroke: #000000; stroke-width: 0.8"/>
      </g>
     </g>
     <g id="text_13">
      <!-- 30000 -->
      <g transform="translate(18.7875 142.553708) scale(0.1 -0.1)">
       <defs>
        <path id="DejaVuSans-33" d="M 2597 2516 
Q 3050 2419 3304 2112 
Q 3559 1806 3559 1356 
Q 3559 666 3084 287 
Q 2609 -91 1734 -91 
Q 1441 -91 1130 -33 
Q 819 25 488 141 
L 488 750 
Q 750 597 1062 519 
Q 1375 441 1716 441 
Q 2309 441 2620 675 
Q 2931 909 2931 1356 
Q 2931 1769 2642 2001 
Q 2353 2234 1838 2234 
L 1294 2234 
L 1294 2753 
L 1863 2753 
Q 2328 2753 2575 2939 
Q 2822 3125 2822 3475 
Q 2822 3834 2567 4026 
Q 2313 4219 1838 4219 
Q 1578 4219 1281 4162 
Q 984 4106 628 3988 
L 628 4550 
Q 988 4650 1302 4700 
Q 1616 4750 1894 4750 
Q 2613 4750 3031 4423 
Q 3450 4097 3450 3541 
Q 3450 3153 3228 2886 
Q 3006 2619 2597 2516 
z
" transform="scale(0.015625)"/>
       </defs>
       <use xlink:href="#DejaVuSans-33"/>
       <use xlink:href="#DejaVuSans-30" x="63.623047"/>
       <use xlink:href="#DejaVuSans-30" x="127.246094"/>
       <use xlink:href="#DejaVuSans-30" x="190.869141"/>
       <use xlink:href="#DejaVuSans-30" x="254.492188"/>
      </g>
     </g>
    </g>
    <g id="ytick_5">
     <g id="line2d_13">
      <g>
       <use xlink:href="#m74fb44bf63" x="57.6" y="86.415776" style="stroke: #000000; stroke-width: 0.8"/>
      </g>
     </g>
     <g id="text_14">
      <!-- 40000 -->
      <g transform="translate(18.7875 90.214995) scale(0.1 -0.1)">
       <defs>
        <path id="DejaVuSans-34" d="M 2419 4116 
L 825 1625 
L 2419 1625 
L 2419 4116 
z
M 2253 4666 
L 3047 4666 
L 3047 1625 
L 3713 1625 
L 3713 1100 
L 3047 1100 
L 3047 0 
L 2419 0 
L 2419 1100 
L 313 1100 
L 313 1709 
L 2253 4666 
z
" transform="scale(0.015625)"/>
       </defs>
       <use xlink:href="#DejaVuSans-34"/>
       <use xlink:href="#DejaVuSans-30" x="63.623047"/>
       <use xlink:href="#DejaVuSans-30" x="127.246094"/>
       <use xlink:href="#DejaVuSans-30" x="190.869141"/>
       <use xlink:href="#DejaVuSans-30" x="254.492188"/>
      </g>
     </g>
    </g>
    <g id="text_15">
     <!-- time (in nanoseconds) -->
     <g transform="translate(12.707812 230.360031) rotate(-90) scale(0.1 -0.1)">
      <defs>
       <path id="DejaVuSans-74" d="M 1172 4494 
L 1172 3500 
L 2356 3500 
L 2356 3053 
L 1172 3053 
L 1172 1153 
Q 1172 725 1289 603 
Q 1406 481 1766 481 
L 2356 481 
L 2356 0 
L 1766 0 
Q 1100 0 847 248 
Q 594 497 594 1153 
L 594 3053 
L 172 3053 
L 172 3500 
L 594 3500 
L 594 4494 
L 1172 4494 
z
" transform="scale(0.015625)"/>
       <path id="DejaVuSans-6d" d="M 3328 2828 
Q 3544 3216 3844 3400 
Q 4144 3584 4550 3584 
Q 5097 3584 5394 3201 
Q 5691 2819 5691 2113 
L 5691 0 
L 5113 0 
L 5113 2094 
Q 5113 2597 4934 2840 
Q 4756 3084 4391 3084 
Q 3944 3084 3684 2787 
Q 3425 2491 3425 1978 
L 3425 0 
L 2847 0 
L 2847 2094 
Q 2847 2600 2669 2842 
Q 2491 3084 2119 3084 
Q 1678 3084 1418 2786 
Q 1159 2488 1159 1978 
L 1159 0 
L 581 0 
L 581 3500 
L 1159 3500 
L 1159 2956 
Q 1356 3278 1631 3431 
Q 1906 3584 2284 3584 
Q 2666 3584 2933 3390 
Q 3200 3197 3328 2828 
z
" transform="scale(0.015625)"/>
       <path id="DejaVuSans-28" d="M 1984 4856 
Q 1566 4138 1362 3434 
Q 1159 2731 1159 2009 
Q 1159 1288 1364 580 
Q 1569 -128 1984 -844 
L 1484 -844 
Q 1016 -109 783 600 
Q 550 1309 550 2009 
Q 550 2706 781 3412 
Q 1013 4119 1484 4856 
L 1984 4856 
z
" transform="scale(0.015625)"/>
       <path id="DejaVuSans-6e" d="M 3513 2113 
L 3513 0 
L 2938 0 
L 2938 2094 
Q 2938 2591 2744 2837 
Q 2550 3084 2163 3084 
Q 1697 3084 1428 2787 
Q 1159 2491 1159 1978 
L 1159 0 
L 581 0 
L 581 3500 
L 1159 3500 
L 1159 2956 
Q 1366 3272 1645 3428 
Q 1925 3584 2291 3584 
Q 2894 3584 3203 3211 
Q 3513 2838 3513 2113 
z
" transform="scale(0.015625)"/>
       <path id="DejaVuSans-6f" d="M 1959 3097 
Q 1497 3097 1228 2736 
Q 959 2375 959 1747 
Q 959 1119 1226 758 
Q 1494 397 1959 397 
Q 2419 397 2687 759 
Q 2956 1122 2956 1747 
Q 2956 2369 2687 2733 
Q 2419 3097 1959 3097 
z
M 1959 3584 
Q 2709 3584 3137 3096 
Q 3566 2609 3566 1747 
Q 3566 888 3137 398 
Q 2709 -91 1959 -91 
Q 1206 -91 779 398 
Q 353 888 353 1747 
Q 353 2609 779 3096 
Q 1206 3584 1959 3584 
z
" transform="scale(0.015625)"/>
       <path id="DejaVuSans-63" d="M 3122 3366 
L 3122 2828 
Q 2878 2963 2633 3030 
Q 2388 3097 2138 3097 
Q 1578 3097 1268 2742 
Q 959 2388 959 1747 
Q 959 1106 1268 751 
Q 1578 397 2138 397 
Q 2388 397 2633 464 
Q 2878 531 3122 666 
L 3122 134 
Q 2881 22 2623 -34 
Q 2366 -91 2075 -91 
Q 1284 -91 818 406 
Q 353 903 353 1747 
Q 353 2603 823 3093 
Q 1294 3584 2113 3584 
Q 2378 3584 2631 3529 
Q 2884 3475 3122 3366 
z
" transform="scale(0.015625)"/>
       <path id="DejaVuSans-64" d="M 2906 2969 
L 2906 4863 
L 3481 4863 
L 3481 0 
L 2906 0 
L 2906 525 
Q 2725 213 2448 61 
Q 2172 -91 1784 -91 
Q 1150 -91 751 415 
Q 353 922 353 1747 
Q 353 2572 751 3078 
Q 1150 3584 1784 3584 
Q 2172 3584 2448 3432 
Q 2725 3281 2906 2969 
z
M 947 1747 
Q 947 1113 1208 752 
Q 1469 391 1925 391 
Q 2381 391 2643 752 
Q 2906 1113 2906 1747 
Q 2906 2381 2643 2742 
Q 2381 3103 1925 3103 
Q 1469 3103 1208 2742 
Q 947 2381 947 1747 
z
" transform="scale(0.015625)"/>
       <path id="DejaVuSans-29" d="M 513 4856 
L 1013 4856 
Q 1481 4119 1714 3412 
Q 1947 2706 1947 2009 
Q 1947 1309 1714 600 
Q 1481 -109 1013 -844 
L 513 -844 
Q 928 -128 1133 580 
Q 1338 1288 1338 2009 
Q 1338 2731 1133 3434 
Q 928 4138 513 4856 
z
" transform="scale(0.015625)"/>
      </defs>
      <use xlink:href="#DejaVuSans-74"/>
      <use xlink:href="#DejaVuSans-69" x="39.208984"/>
      <use xlink:href="#DejaVuSans-6d" x="66.992188"/>
      <use xlink:href="#DejaVuSans-65" x="164.404297"/>
      <use xlink:href="#DejaVuSans-20" x="225.927734"/>
      <use xlink:href="#DejaVuSans-28" x="257.714844"/>
      <use xlink:href="#DejaVuSans-69" x="296.728516"/>
      <use xlink:href="#DejaVuSans-6e" x="324.511719"/>
      <use xlink:href="#DejaVuSans-20" x="387.890625"/>
      <use xlink:href="#DejaVuSans-6e" x="419.677734"/>
      <use xlink:href="#DejaVuSans-61" x="483.056641"/>
      <use xlink:href="#DejaVuSans-6e" x="544.335938"/>
      <use xlink:href="#DejaVuSans-6f" x="607.714844"/>
      <use xlink:href="#DejaVuSans-73" x="668.896484"/>
      <use xlink:href="#DejaVuSans-65" x="720.996094"/>
      <use xlink:href="#DejaVuSans-63" x="782.519531"/>
      <use xlink:href="#DejaVuSans-6f" x="837.5"/>
      <use xlink:href="#DejaVuSans-6e" x="898.681641"/>
      <use xlink:href="#DejaVuSans-64" x="962.060547"/>
      <use xlink:href="#DejaVuSans-73" x="1025.537109"/>
      <use xlink:href="#DejaVuSans-29" x="1077.636719"/>
     </g>
    </g>
   </g>
   <g id="line2d_14">
    <path d="M 73.832727 287.611024 
L 73.948904 295.477532 
L 75.749635 295.477532 
L 75.768998 286.019927 
L 75.827086 295.482766 
L 75.846449 295.477532 
L 77.685906 295.461831 
L 77.705269 284.779499 
L 77.763357 295.477532 
L 77.78272 295.477532 
L 79.622177 295.456597 
L 79.64154 283.366354 
L 79.680265 295.482766 
L 79.718991 295.472298 
L 80.14497 295.482766 
L 80.57095 295.472298 
L 80.958204 295.472298 
L 81.364821 295.467065 
L 81.558448 295.467065 
L 81.577811 287.02483 
L 81.597174 295.477532 
L 81.655262 295.477532 
L 83.088102 295.467065 
L 83.107465 295.294347 
L 83.126828 295.477532 
L 83.184916 295.477532 
L 83.494719 295.477532 
L 83.514082 280.388281 
L 83.591533 295.477532 
L 83.804523 295.477532 
L 84.191777 295.472298 
L 84.579031 295.472298 
L 84.985648 295.477532 
L 85.353539 295.477532 
L 85.43099 295.477532 
L 85.450353 278.064442 
L 85.527804 295.472298 
L 85.760156 295.477532 
L 87.367261 295.477532 
L 87.386624 282.340515 
L 87.464075 295.440895 
L 87.618976 295.482766 
L 88.044956 295.477532 
L 89.303532 295.477532 
L 89.322895 280.906435 
L 89.400345 295.472298 
L 91.046176 295.472298 
L 91.065538 295.048355 
L 91.084901 295.482766 
L 91.142989 295.482766 
L 91.239803 295.482766 
L 91.259166 281.48216 
L 91.336616 295.472298 
L 93.176074 295.472298 
L 93.195436 271.898942 
L 93.214799 295.477532 
L 93.272887 295.477532 
L 93.447152 295.477532 
L 93.873131 295.472298 
L 95.112345 295.477532 
L 95.131707 277.985934 
L 95.209158 295.477532 
L 97.048616 295.467065 
L 97.067978 262.938554 
L 97.145429 295.482766 
L 97.590771 295.467065 
L 97.765036 295.482766 
L 98.191015 295.477532 
L 98.984887 295.467065 
L 99.004249 275.138708 
L 99.042975 295.477532 
L 99.0817 295.477532 
L 99.488317 295.472298 
L 99.914297 295.477532 
L 100.340276 295.472298 
L 100.746893 295.477532 
L 100.921157 295.477532 
L 100.94052 256.51136 
L 101.017971 295.472298 
L 102.857428 295.477532 
L 102.876791 272.328119 
L 102.954242 295.477532 
L 103.360859 295.477532 
L 104.793699 295.482766 
L 104.813062 254.3079 
L 104.890513 295.467065 
L 105.335855 295.477532 
L 106.72997 295.446129 
L 106.749333 264.011498 
L 106.807421 295.482766 
L 106.826784 295.477532 
L 107.059136 295.477532 
L 107.465753 295.477532 
L 108.666241 295.477532 
L 108.685604 253.098876 
L 108.763055 295.477532 
L 110.602512 295.482766 
L 110.621875 261.912716 
L 110.699326 295.482766 
L 110.931678 295.477532 
L 112.538783 295.472298 
L 112.558146 264.00103 
L 112.616234 295.477532 
L 112.635597 295.472298 
L 114.475054 295.477532 
L 114.494417 242.36944 
L 114.571867 295.477532 
L 115.752993 295.482766 
L 115.772355 295.299581 
L 115.849806 295.467065 
L 116.275786 295.477532 
L 116.411325 295.477532 
L 116.430688 260.865941 
L 116.508138 295.477532 
L 116.895393 295.477532 
L 117.302009 295.372855 
L 117.418186 295.477532 
L 117.824803 295.477532 
L 118.347596 295.477532 
L 118.366958 258.746223 
L 118.444409 295.477532 
L 120.187053 295.482766 
L 120.206416 295.289113 
L 120.283867 295.477532 
L 120.303229 252.894755 
L 120.38068 295.477532 
L 120.787297 295.477532 
L 122.220138 295.482766 
L 122.2395 237.297819 
L 122.316951 295.467065 
L 122.568666 295.477532 
L 124.156409 295.472298 
L 124.175771 234.675649 
L 124.214497 295.482766 
L 124.253222 295.472298 
L 126.092679 295.477532 
L 126.112042 252.800546 
L 126.189493 295.477532 
L 128.02895 295.482766 
L 128.048313 233.403818 
L 128.125764 295.477532 
L 129.965221 295.477532 
L 129.984584 226.877181 
L 130.062035 295.467065 
L 130.507377 295.482766 
L 130.73973 295.482766 
L 131.165709 295.472298 
L 131.398062 295.472298 
L 131.804679 295.477532 
L 131.901492 295.477532 
L 131.920855 227.395334 
L 131.978943 295.482766 
L 131.998306 295.472298 
L 132.424285 295.477532 
L 133.837763 295.477532 
L 133.857126 246.514666 
L 133.895851 295.482766 
L 133.934577 295.472298 
L 134.341194 295.467065 
L 134.573546 295.477532 
L 134.709085 295.477532 
L 135.115702 295.477532 
L 135.774034 295.461831 
L 135.793397 216.97993 
L 135.832122 295.477532 
L 135.870848 295.467065 
L 136.045112 295.472298 
L 136.471092 295.477532 
L 137.710305 295.477532 
L 137.729668 226.500342 
L 137.807119 295.467065 
L 139.569125 295.477532 
L 139.588488 295.23154 
L 139.646576 295.472298 
L 139.665939 221.732285 
L 139.743389 295.482766 
L 140.169369 295.472298 
L 140.595349 295.477532 
L 141.466671 295.477532 
L 141.486033 295.294347 
L 141.563484 295.477532 
L 141.582847 295.472298 
L 141.60221 238.412633 
L 141.67966 295.482766 
L 141.699023 295.477532 
L 141.718386 295.189669 
L 141.757111 295.482766 
L 141.795837 295.461831 
L 142.202454 295.467065 
L 142.221816 295.404258 
L 142.299267 295.477532 
L 142.725247 295.472298 
L 143.519118 295.472298 
L 143.53848 240.343932 
L 143.615931 295.482766 
L 144.080636 295.461831 
L 144.274263 295.477532 
L 144.68088 295.456597 
L 144.835782 295.477532 
L 145.281124 295.451363 
L 145.416663 295.477532 
L 145.455389 295.477532 
L 145.474751 172.251266 
L 145.513477 295.482766 
L 145.552202 295.477532 
L 145.726467 295.467065 
L 147.39166 295.477532 
L 147.411022 218.016237 
L 147.488473 295.467065 
L 147.914453 295.477532 
L 148.32107 295.472298 
L 148.688961 295.472298 
L 148.843863 295.477532 
L 149.269842 295.482766 
L 149.327931 295.467065 
L 149.347293 203.063066 
L 149.366656 295.482766 
L 149.424744 295.482766 
L 149.657097 295.461831 
L 149.811998 295.472298 
L 150.199252 295.477532 
L 150.334791 295.477532 
L 151.264201 295.477532 
L 151.283564 232.252367 
L 151.361015 295.467065 
L 151.593367 295.477532 
L 151.767632 295.477532 
L 152.174249 295.472298 
L 152.600228 295.477532 
L 153.200472 295.467065 
L 153.219835 229.588326 
L 153.239198 295.477532 
L 153.297286 295.477532 
L 153.723266 295.467065 
L 153.742628 295.283879 
L 153.781354 295.477532 
L 153.820079 295.472298 
L 154.246059 295.477532 
L 155.136743 295.461831 
L 155.156106 229.876189 
L 155.214194 295.482766 
L 155.233557 295.477532 
L 155.640174 295.477532 
L 156.046791 295.477532 
L 157.073014 295.467065 
L 157.092377 230.89156 
L 157.131102 295.477532 
L 157.169828 295.472298 
L 157.557082 295.472298 
L 157.789434 295.472298 
L 158.215414 295.477532 
L 158.370316 295.456597 
L 158.486492 295.477532 
L 158.505855 295.461831 
L 158.680119 295.477532 
L 159.009285 295.477532 
L 159.028648 231.179423 
L 159.106099 295.477532 
L 159.493353 295.472298 
L 159.880607 295.477532 
L 160.945556 295.477532 
L 160.964919 230.519955 
L 161.04237 295.472298 
L 161.468349 295.477532 
L 162.881827 295.472298 
L 162.90119 229.248125 
L 162.939915 295.482766 
L 162.978641 295.477532 
L 163.210993 295.477532 
L 163.598247 295.477532 
L 163.966139 295.477532 
L 164.198491 295.477532 
L 164.818098 295.482766 
L 164.837461 227.887318 
L 164.914911 295.477532 
L 165.379616 295.472298 
L 165.398979 295.268177 
L 165.47643 295.467065 
L 165.90241 295.477532 
L 166.309026 295.477532 
L 166.754369 295.477532 
L 166.773732 226.202012 
L 166.851182 295.477532 
L 167.257799 295.482766 
L 167.703142 295.467065 
L 167.935494 295.477532 
L 168.342111 295.477532 
L 168.69064 295.477532 
L 168.710002 225.21281 
L 168.748728 295.482766 
L 168.787453 295.472298 
L 169.174707 295.477532 
L 169.40706 295.477532 
L 170.626911 295.472298 
L 170.646273 221.8736 
L 170.704361 295.477532 
L 170.723724 295.472298 
L 171.149704 295.482766 
L 171.575683 295.477532 
L 172.563182 295.477532 
L 172.582544 221.072818 
L 172.659995 295.477532 
L 174.499452 295.477532 
L 174.518815 219.895197 
L 174.596266 295.477532 
L 175.022246 295.472298 
L 175.390137 295.477532 
L 175.564402 295.477532 
L 175.971018 295.472298 
L 176.396998 295.477532 
L 176.435723 295.477532 
L 176.455086 217.571358 
L 176.532537 295.477532 
L 176.706801 295.472298 
L 177.132781 295.482766 
L 177.578123 295.472298 
L 178.004103 295.477532 
L 178.371994 295.472298 
L 178.391357 217.623696 
L 178.449445 295.482766 
L 178.468808 295.477532 
L 178.894787 295.461831 
L 179.146503 295.477532 
L 179.55312 295.477532 
L 180.037187 295.477532 
L 180.05655 295.346685 
L 180.134001 295.472298 
L 180.308265 295.430427 
L 180.327628 215.582487 
L 180.385716 295.477532 
L 180.405079 295.477532 
L 180.811696 295.472298 
L 181.218313 295.477532 
L 181.450665 295.477532 
L 182.244536 295.477532 
L 182.263899 215.420237 
L 182.34135 295.477532 
L 184.180807 295.477532 
L 184.20017 212.515438 
L 184.277621 295.472298 
L 186.117078 295.472298 
L 186.136441 212.269446 
L 186.194529 295.482766 
L 186.213892 295.472298 
L 188.053349 295.482766 
L 188.072712 211.358752 
L 188.150162 295.477532 
L 189.98962 295.477532 
L 190.008983 209.799059 
L 190.086433 295.482766 
L 190.318786 295.467065 
L 190.570501 295.477532 
L 191.925891 295.477532 
L 191.945254 208.312639 
L 192.022704 295.472298 
L 193.223192 295.477532 
L 193.242555 295.351919 
L 193.320006 295.472298 
L 193.726623 295.477532 
L 193.862162 295.477532 
L 193.881524 204.973429 
L 193.958975 295.477532 
L 195.798433 295.472298 
L 195.817795 205.313631 
L 195.837158 295.477532 
L 195.895246 295.477532 
L 196.301863 295.482766 
L 196.727843 295.477532 
L 197.115097 295.477532 
L 197.269999 295.477532 
L 197.63789 295.477532 
L 197.734704 295.477532 
L 197.754066 204.13601 
L 197.831517 295.477532 
L 198.238134 295.477532 
L 198.412398 295.477532 
L 199.670974 295.472298 
L 199.690337 203.335228 
L 199.7097 295.477532 
L 199.767788 295.472298 
L 201.607245 295.472298 
L 201.626608 200.1478 
L 201.645971 295.477532 
L 201.704059 295.467065 
L 201.955774 295.477532 
L 203.543516 295.472298 
L 203.562879 199.859937 
L 203.582242 295.477532 
L 203.64033 295.477532 
L 205.479787 295.467065 
L 205.49915 197.598905 
L 205.576601 295.477532 
L 207.416058 295.477532 
L 207.435421 197.672179 
L 207.512872 295.477532 
L 207.938851 295.461831 
L 208.132478 295.477532 
L 209.352329 295.467065 
L 209.371692 196.122953 
L 209.391055 295.477532 
L 209.449143 295.461831 
L 209.604044 295.477532 
L 211.2886 295.477532 
L 211.307963 194.327735 
L 211.385414 295.477532 
L 213.224871 295.451363 
L 213.244234 191.276388 
L 213.263596 295.477532 
L 213.321684 295.477532 
L 215.161142 295.467065 
L 215.180505 191.914921 
L 215.199867 295.477532 
L 215.257955 295.477532 
L 215.64521 295.477532 
L 216.032464 295.477532 
L 216.439081 295.477532 
L 217.097413 295.472298 
L 217.116775 190.470372 
L 217.155501 295.477532 
L 217.194226 295.477532 
L 217.581481 295.477532 
L 217.949372 295.482766 
L 218.123636 295.477532 
L 219.033684 295.482766 
L 219.053046 189.674824 
L 219.130497 295.440895 
L 219.266036 295.477532 
L 220.117995 295.477532 
L 220.137358 295.346685 
L 220.214809 295.477532 
L 220.389073 295.467065 
L 220.853778 295.482766 
L 220.969955 295.472298 
L 220.989317 185.796525 
L 221.028043 295.477532 
L 221.066768 295.477532 
L 222.731961 295.467065 
L 222.751324 295.194903 
L 222.770687 295.477532 
L 222.828775 295.472298 
L 222.906226 295.477532 
L 222.925588 185.315009 
L 223.003039 295.477532 
L 223.429019 295.472298 
L 223.854998 295.477532 
L 224.842496 295.477532 
L 224.861859 182.525355 
L 224.93931 295.477532 
L 226.778767 295.477532 
L 226.79813 182.661436 
L 226.836856 295.482766 
L 226.875581 295.477532 
L 228.715038 295.477532 
L 228.734401 182.242726 
L 228.811852 295.472298 
L 229.044204 295.472298 
L 229.412096 295.477532 
L 229.58636 295.477532 
L 229.838075 295.456597 
L 229.992977 295.477532 
L 230.651309 295.461831 
L 230.670672 177.411863 
L 230.709397 295.482766 
L 230.748123 295.477532 
L 232.58758 295.477532 
L 232.606943 176.919879 
L 232.684394 295.467065 
L 232.936109 295.477532 
L 234.523851 295.477532 
L 234.543214 175.805065 
L 234.620665 295.477532 
L 235.046644 295.472298 
L 235.956692 295.472298 
L 235.976054 279.964338 
L 235.995417 295.477532 
L 236.053505 295.477532 
L 236.440759 295.477532 
L 236.460122 295.467065 
L 236.479485 176.014419 
L 236.498847 295.477532 
L 236.556936 295.477532 
L 238.396393 295.477532 
L 238.415756 172.444919 
L 238.493206 295.482766 
L 238.957911 295.425194 
L 239.09345 295.477532 
L 240.332664 295.477532 
L 240.352027 173.371314 
L 240.429477 295.472298 
L 240.836094 295.472298 
L 241.184623 295.472298 
L 241.203986 294.012048 
L 241.223348 295.477532 
L 241.281437 295.477532 
L 242.268935 295.482766 
L 242.288297 169.885556 
L 242.365748 295.477532 
L 242.869179 295.482766 
L 242.888541 295.126863 
L 242.965992 295.482766 
L 243.353246 295.467065 
L 243.372609 295.147798 
L 243.391972 295.477532 
L 243.45006 295.472298 
L 244.205206 295.472298 
L 244.224568 160.647773 
L 244.302019 295.482766 
L 246.141477 295.477532 
L 246.160839 169.236556 
L 246.23829 295.472298 
L 248.077748 295.472298 
L 248.09711 169.063838 
L 248.116473 295.477532 
L 248.174561 295.472298 
L 248.600541 295.477532 
L 250.014018 295.477532 
L 250.033381 166.326524 
L 250.072107 295.482766 
L 250.110832 295.472298 
L 251.950289 295.477532 
L 251.969652 164.918612 
L 252.047103 295.472298 
L 252.45372 295.482766 
L 252.627984 295.472298 
L 253.053964 295.477532 
L 253.88656 295.477532 
L 253.905923 163.56304 
L 253.983374 295.477532 
L 254.235089 295.467065 
L 254.486804 295.472298 
L 254.506167 295.367621 
L 254.583618 295.472298 
L 254.81597 295.477532 
L 255.822831 295.461831 
L 255.842194 162.511031 
L 255.880919 295.477532 
L 255.919645 295.477532 
L 257.759102 295.482766 
L 257.778465 161.75212 
L 257.855916 295.472298 
L 258.281895 295.477532 
L 259.67601 295.477532 
L 259.695373 295.132097 
L 259.714736 160.605902 
L 259.753461 295.477532 
L 259.792187 295.477532 
L 260.198803 295.472298 
L 260.624783 295.477532 
L 261.631644 295.477532 
L 261.651007 159.648104 
L 261.728458 295.477532 
L 263.219386 295.472298 
L 263.238749 295.341452 
L 263.3162 295.477532 
L 263.567915 295.472298 
L 263.587278 157.376604 
L 263.60664 295.477532 
L 263.664728 295.477532 
L 264.03262 295.482766 
L 264.226247 295.467065 
L 264.671589 295.482766 
L 265.078206 295.467065 
L 265.252471 295.477532 
L 265.504186 295.472298 
L 265.523549 155.926821 
L 265.600999 295.482766 
L 267.440457 295.477532 
L 267.459819 152.713224 
L 267.53727 295.477532 
L 267.905162 295.477532 
L 268.137514 295.477532 
L 269.376728 295.472298 
L 269.39609 137.555933 
L 269.454178 295.477532 
L 269.473541 295.477532 
L 269.899521 295.472298 
L 270.344863 295.482766 
L 271.312999 295.477532 
L 271.332361 151.106426 
L 271.409812 295.482766 
L 271.584077 295.467065 
L 271.816429 295.472298 
L 273.24927 295.477532 
L 273.268632 148.950071 
L 273.346083 295.467065 
L 273.7527 295.467065 
L 273.868876 295.477532 
L 275.18554 295.467065 
L 275.204903 148.955305 
L 275.224266 295.477532 
L 275.282354 295.472298 
L 275.688971 295.477532 
L 276.11495 295.472298 
L 277.121811 295.477532 
L 277.141174 147.84049 
L 277.218625 295.477532 
L 277.450977 295.467065 
L 277.89632 295.482766 
L 278.322299 295.477532 
L 279.058082 295.482766 
L 279.077445 146.689038 
L 279.154896 295.477532 
L 279.387248 295.472298 
L 279.619601 295.477532 
L 280.994353 295.477532 
L 281.013716 145.171216 
L 281.052441 295.482766 
L 281.091167 295.472298 
L 281.110529 294.891339 
L 281.129892 295.477532 
L 281.18798 295.477532 
L 282.930624 295.456597 
L 282.949987 142.967756 
L 282.96935 295.477532 
L 283.027438 295.477532 
L 284.866895 295.477532 
L 284.886258 142.925885 
L 284.924983 295.482766 
L 284.963709 295.477532 
L 285.389688 295.472298 
L 285.815668 295.477532 
L 286.803166 295.477532 
L 286.822529 140.706724 
L 286.89998 295.477532 
L 288.739437 295.482766 
L 288.7588 139.686119 
L 288.83625 295.477532 
L 289.165416 295.477532 
L 289.184779 294.964613 
L 289.26223 295.472298 
L 289.552671 295.477532 
L 289.572033 295.367621 
L 289.668847 295.409492 
L 289.785023 295.477532 
L 290.172277 295.477532 
L 290.578894 295.482766 
L 290.675708 295.477532 
L 290.695071 136.221296 
L 290.733796 295.482766 
L 290.772521 295.472298 
L 290.985511 295.477532 
L 292.611979 295.477532 
L 292.631341 133.986433 
L 292.708792 295.461831 
L 292.960507 295.477532 
L 294.54825 295.482766 
L 294.567612 134.666836 
L 294.645063 295.482766 
L 295.090406 295.472298 
L 295.361483 295.472298 
L 295.380846 295.226306 
L 295.438934 295.482766 
L 295.458297 295.477532 
L 296.484521 295.472298 
L 296.503883 126.245537 
L 296.523246 295.477532 
L 296.581334 295.477532 
L 298.420791 295.482766 
L 298.440154 131.924287 
L 298.517605 295.472298 
L 298.943585 295.477532 
L 300.357062 295.482766 
L 300.376425 129.977287 
L 300.453876 295.477532 
L 302.293333 295.477532 
L 302.312696 130.181408 
L 302.390147 295.472298 
L 304.229604 295.472298 
L 304.248967 112.004173 
L 304.287692 295.477532 
L 304.326418 295.477532 
L 304.752397 295.472298 
L 306.165875 295.477532 
L 306.185238 126.978279 
L 306.262689 295.477532 
L 308.102146 295.472298 
L 308.121509 125.743085 
L 308.140872 295.477532 
L 308.19896 295.467065 
L 308.644302 295.477532 
L 309.050919 295.477532 
L 310.038417 295.477532 
L 310.05778 119.483375 
L 310.135231 295.472298 
L 310.56121 295.477532 
L 310.696749 295.467065 
L 310.948464 295.477532 
L 311.974688 295.467065 
L 311.994051 117.782367 
L 312.013413 295.472298 
L 312.071501 295.472298 
L 312.478118 295.477532 
L 312.923461 295.451363 
L 313.097725 295.477532 
L 313.910959 295.477532 
L 313.930322 118.452303 
L 313.969047 295.482766 
L 314.007772 295.477532 
L 314.414389 295.472298 
L 314.646742 295.477532 
L 315.84723 295.477532 
L 315.866592 119.739835 
L 315.944043 295.472298 
L 316.370023 295.477532 
L 316.77664 295.477532 
L 317.783501 295.477532 
L 317.802863 117.829472 
L 317.880314 295.477532 
L 319.719772 295.477532 
L 319.739134 117.860875 
L 319.816585 295.477532 
L 321.656043 295.477532 
L 321.675405 116.620448 
L 321.752856 295.472298 
L 322.178836 295.477532 
L 322.933981 295.482766 
L 322.953344 295.184435 
L 323.030795 295.472298 
L 323.263147 295.472298 
L 323.592313 295.451363 
L 323.611676 110.454947 
L 323.631039 295.477532 
L 323.689127 295.477532 
L 325.528584 295.477532 
L 325.547947 105.650253 
L 325.625398 295.477532 
L 327.464855 295.477532 
L 327.484218 110.167084 
L 327.561669 295.482766 
L 327.735933 295.467065 
L 328.14255 295.477532 
L 328.374903 295.477532 
L 329.401126 295.477532 
L 329.420489 105.116399 
L 329.49794 295.477532 
L 331.337397 295.467065 
L 331.35676 106.78077 
L 331.376123 295.477532 
L 331.434211 295.472298 
L 331.86019 295.477532 
L 332.266807 295.472298 
L 332.673424 295.472298 
L 333.273668 295.477532 
L 333.293031 99.312035 
L 333.370482 295.472298 
L 333.796461 295.482766 
L 334.222441 295.477532 
L 334.338617 295.472298 
L 334.35798 295.247242 
L 334.377343 295.477532 
L 334.435431 295.477532 
L 335.209939 295.482766 
L 335.229302 106.545245 
L 335.306753 295.477532 
L 335.539105 295.477532 
L 337.14621 295.482766 
L 337.165573 105.058826 
L 337.243023 295.482766 
L 339.082481 295.477532 
L 339.101844 103.839334 
L 339.179294 295.467065 
L 339.276108 295.472298 
L 339.295471 295.346685 
L 339.372921 295.477532 
L 341.018752 295.472298 
L 341.038114 102.567503 
L 341.057477 295.477532 
L 341.115565 295.477532 
L 342.955023 295.477532 
L 342.974385 100.610035 
L 343.051836 295.477532 
L 343.458453 295.477532 
L 344.891294 295.472298 
L 344.910656 99.673172 
L 344.968744 295.482766 
L 344.988107 295.477532 
L 346.827565 295.472298 
L 346.846927 98.631632 
L 346.905015 295.477532 
L 346.924378 295.472298 
L 347.098642 295.477532 
L 347.234181 295.461831 
L 347.427809 295.477532 
L 347.834425 295.472298 
L 348.260405 295.477532 
L 348.763835 295.477532 
L 348.783198 96.203116 
L 348.860649 295.472298 
L 349.286629 295.477532 
L 349.480256 295.461831 
L 349.673883 295.477532 
L 350.700106 295.477532 
L 350.719469 94.360793 
L 350.758195 295.482766 
L 350.79692 295.477532 
L 350.913096 295.472298 
L 352.636377 295.472298 
L 352.65574 91.947978 
L 352.694465 295.477532 
L 352.733191 295.467065 
L 352.946181 295.472298 
L 353.37216 295.477532 
L 353.604513 295.477532 
L 354.01113 295.330984 
L 354.107943 295.482766 
L 354.127306 295.477532 
L 354.572648 295.477532 
L 354.592011 91.974148 
L 354.630736 295.482766 
L 354.669462 295.472298 
L 356.508919 295.477532 
L 356.528282 87.624801 
L 356.605733 295.467065 
L 356.838085 295.477532 
L 357.244702 295.472298 
L 357.670682 295.477532 
L 358.077299 295.477532 
L 358.44519 295.477532 
L 358.464553 90.262672 
L 358.503278 295.482766 
L 358.542004 295.451363 
L 358.696905 295.477532 
L 358.929258 295.477532 
L 360.381461 295.472298 
L 360.400824 87.399744 
L 360.478275 295.482766 
L 360.904254 295.477532 
L 362.317732 295.482766 
L 362.337095 87.253196 
L 362.414545 295.482766 
L 362.840525 295.472298 
L 363.266505 295.482766 
L 363.692484 295.472298 
L 364.079738 295.472298 
L 364.23464 295.477532 
L 364.254003 295.477532 
L 364.273366 86.58326 
L 364.312091 295.482766 
L 364.350816 295.482766 
L 364.815521 295.467065 
L 365.260864 295.477532 
L 366.190274 295.482766 
L 366.209636 81.778566 
L 366.287087 295.467065 
L 366.51944 295.467065 
L 366.693704 295.477532 
L 367.119684 295.472298 
L 368.126545 295.472298 
L 368.145907 81.616316 
L 368.16527 295.477532 
L 368.223358 295.477532 
L 370.062816 295.467065 
L 370.082178 80.433461 
L 370.140266 295.477532 
L 370.159629 295.477532 
L 370.333894 295.472298 
L 370.759873 295.477532 
L 371.16649 295.477532 
L 371.999087 295.472298 
L 372.018449 79.292478 
L 372.057175 295.477532 
L 372.0959 295.461831 
L 372.289527 295.477532 
L 373.935357 295.477532 
L 373.95472 78.135792 
L 374.032171 295.477532 
L 374.438788 295.461831 
L 374.632415 295.477532 
L 375.039032 295.477532 
L 375.871628 295.477532 
L 375.890991 77.225098 
L 375.968442 295.477532 
L 377.807899 295.472298 
L 377.827262 76.10505 
L 377.865987 295.477532 
L 377.904713 295.477532 
L 379.74417 295.467065 
L 379.763533 74.838453 
L 379.821621 295.477532 
L 379.840984 295.472298 
L 380.228238 295.472298 
L 380.266963 295.477532 
L 380.286326 295.362387 
L 380.363777 295.477532 
L 381.680441 295.472298 
L 381.699804 72.50938 
L 381.777255 295.482766 
L 383.616712 295.456597 
L 383.636075 71.808042 
L 383.694163 295.482766 
L 383.713526 295.477532 
L 385.552983 295.477532 
L 385.572346 67.620944 
L 385.649797 295.472298 
L 387.489254 295.472298 
L 387.508617 68.22284 
L 387.586067 295.482766 
L 388.012047 295.477532 
L 388.418664 295.477532 
L 389.425525 295.482766 
L 389.444888 59.916686 
L 389.522338 295.482766 
L 389.948318 295.477532 
L 390.238759 295.467065 
L 390.258121 295.200137 
L 390.296847 295.477532 
L 390.335572 295.477532 
L 391.361796 295.477532 
L 391.381158 56.802532 
L 391.458609 295.482766 
L 393.298067 295.482766 
L 393.317429 53.568 
L 393.39488 295.467065 
L 393.82086 295.472298 
L 394.227477 295.472298 
L 394.653456 295.477532 
L 394.885809 295.467065 
L 395.060073 295.477532 
L 395.079436 295.367621 
L 395.176249 295.456597 
L 395.234338 295.477532 
L 395.2537 56.870573 
L 395.331151 295.477532 
L 395.737768 295.472298 
L 396.163748 295.477532 
L 397.170609 295.461831 
L 397.189971 59.822476 
L 397.267422 295.482766 
L 397.499775 295.477532 
L 397.674039 295.477532 
L 397.693402 292.017943 
L 397.712764 295.482766 
L 397.770852 295.482766 
L 398.003205 295.477532 
L 398.487273 295.477532 
L 398.487273 295.477532 
" clip-path="url(#paf905c711c)" style="fill: none; stroke: #800080; stroke-width: 1.5; stroke-linecap: square"/>
   </g>
   <g id="patch_3">
    <path d="M 57.6 307.584 
L 57.6 41.472 
" style="fill: none; stroke: #000000; stroke-width: 0.8; stroke-linejoin: miter; stroke-linecap: square"/>
   </g>
   <g id="patch_4">
    <path d="M 414.72 307.584 
L 414.72 41.472 
" style="fill: none; stroke: #000000; stroke-width: 0.8; stroke-linejoin: miter; stroke-linecap: square"/>
   </g>
   <g id="patch_5">
    <path d="M 57.6 307.584 
L 414.72 307.584 
" style="fill: none; stroke: #000000; stroke-width: 0.8; stroke-linejoin: miter; stroke-linecap: square"/>
   </g>
   <g id="patch_6">
    <path d="M 57.6 41.472 
L 414.72 41.472 
" style="fill: none; stroke: #000000; stroke-width: 0.8; stroke-linejoin: miter; stroke-linecap: square"/>
   </g>
  </g>
 </g>
 <defs>
  <clipPath id="paf905c711c">
   <rect x="57.6" y="41.472" width="357.12" height="266.112"/>
  </clipPath>
 </defs>
</svg>
