<?xml version="1.0" encoding="utf-8" standalone="no"?>
<!DOCTYPE svg PUBLIC "-//W3C//DTD SVG 1.1//EN"
  "http://www.w3.org/Graphics/SVG/1.1/DTD/svg11.dtd">
<svg xmlns:xlink="http://www.w3.org/1999/xlink" width="460.8pt" height="345.6pt" viewBox="0 0 460.8 345.6" xmlns="http://www.w3.org/2000/svg" version="1.1">
 <metadata>
  <rdf:RDF xmlns:dc="http://purl.org/dc/elements/1.1/" xmlns:cc="http://creativecommons.org/ns#" xmlns:rdf="http://www.w3.org/1999/02/22-rdf-syntax-ns#">
   <cc:Work>
    <dc:type rdf:resource="http://purl.org/dc/dcmitype/StillImage"/>
    <dc:date>2023-10-28T01:22:40.143478</dc:date>
    <dc:format>image/svg+xml</dc:format>
    <dc:creator>
     <cc:Agent>
      <dc:title>Matplotlib v3.8.0, https://matplotlib.org/</dc:title>
     </cc:Agent>
    </dc:creator>
   </cc:Work>
  </rdf:RDF>
 </metadata>
 <defs>
  <style type="text/css">*{stroke-linejoin: round; stroke-linecap: butt}</style>
 </defs>
 <g id="figure_1">
  <g id="patch_1">
   <path d="M 0 345.6 
L 460.8 345.6 
L 460.8 0 
L 0 0 
L 0 345.6 
z
" style="fill: none; opacity: 0"/>
  </g>
  <g id="axes_1">
   <g id="patch_2">
    <path d="M 57.6 307.584 
L 414.72 307.584 
L 414.72 41.472 
L 57.6 41.472 
L 57.6 307.584 
z
" style="fill: none"/>
   </g>
   <g id="matplotlib.axis_1">
    <g id="xtick_1">
     <g id="line2d_1">
      <defs>
       <path id="mff557929fe" d="M 0 0 
L 0 3.5 
" style="stroke: #000000; stroke-width: 0.8"/>
      </defs>
      <g>
       <use xlink:href="#mff557929fe" x="73.813365" y="307.584" style="stroke: #000000; stroke-width: 0.8"/>
      </g>
     </g>
     <g id="text_1">
      <!-- 0 -->
      <g transform="translate(70.632115 322.182437) scale(0.1 -0.1)">
       <defs>
        <path id="DejaVuSans-30" d="M 2034 4250 
Q 1547 4250 1301 3770 
Q 1056 3291 1056 2328 
Q 1056 1369 1301 889 
Q 1547 409 2034 409 
Q 2525 409 2770 889 
Q 3016 1369 3016 2328 
Q 3016 3291 2770 3770 
Q 2525 4250 2034 4250 
z
M 2034 4750 
Q 2819 4750 3233 4129 
Q 3647 3509 3647 2328 
Q 3647 1150 3233 529 
Q 2819 -91 2034 -91 
Q 1250 -91 836 529 
Q 422 1150 422 2328 
Q 422 3509 836 4129 
Q 1250 4750 2034 4750 
z
" transform="scale(0.015625)"/>
       </defs>
       <use xlink:href="#DejaVuSans-30"/>
      </g>
     </g>
    </g>
    <g id="xtick_2">
     <g id="line2d_2">
      <g>
       <use xlink:href="#mff557929fe" x="122.220138" y="307.584" style="stroke: #000000; stroke-width: 0.8"/>
      </g>
     </g>
     <g id="text_2">
      <!-- 2500 -->
      <g transform="translate(109.495138 322.182437) scale(0.1 -0.1)">
       <defs>
        <path id="DejaVuSans-32" d="M 1228 531 
L 3431 531 
L 3431 0 
L 469 0 
L 469 531 
Q 828 903 1448 1529 
Q 2069 2156 2228 2338 
Q 2531 2678 2651 2914 
Q 2772 3150 2772 3378 
Q 2772 3750 2511 3984 
Q 2250 4219 1831 4219 
Q 1534 4219 1204 4116 
Q 875 4013 500 3803 
L 500 4441 
Q 881 4594 1212 4672 
Q 1544 4750 1819 4750 
Q 2544 4750 2975 4387 
Q 3406 4025 3406 3419 
Q 3406 3131 3298 2873 
Q 3191 2616 2906 2266 
Q 2828 2175 2409 1742 
Q 1991 1309 1228 531 
z
" transform="scale(0.015625)"/>
        <path id="DejaVuSans-35" d="M 691 4666 
L 3169 4666 
L 3169 4134 
L 1269 4134 
L 1269 2991 
Q 1406 3038 1543 3061 
Q 1681 3084 1819 3084 
Q 2600 3084 3056 2656 
Q 3513 2228 3513 1497 
Q 3513 744 3044 326 
Q 2575 -91 1722 -91 
Q 1428 -91 1123 -41 
Q 819 9 494 109 
L 494 744 
Q 775 591 1075 516 
Q 1375 441 1709 441 
Q 2250 441 2565 725 
Q 2881 1009 2881 1497 
Q 2881 1984 2565 2268 
Q 2250 2553 1709 2553 
Q 1456 2553 1204 2497 
Q 953 2441 691 2322 
L 691 4666 
z
" transform="scale(0.015625)"/>
       </defs>
       <use xlink:href="#DejaVuSans-32"/>
       <use xlink:href="#DejaVuSans-35" x="63.623047"/>
       <use xlink:href="#DejaVuSans-30" x="127.246094"/>
       <use xlink:href="#DejaVuSans-30" x="190.869141"/>
      </g>
     </g>
    </g>
    <g id="xtick_3">
     <g id="line2d_3">
      <g>
       <use xlink:href="#mff557929fe" x="170.626911" y="307.584" style="stroke: #000000; stroke-width: 0.8"/>
      </g>
     </g>
     <g id="text_3">
      <!-- 5000 -->
      <g transform="translate(157.901911 322.182437) scale(0.1 -0.1)">
       <use xlink:href="#DejaVuSans-35"/>
       <use xlink:href="#DejaVuSans-30" x="63.623047"/>
       <use xlink:href="#DejaVuSans-30" x="127.246094"/>
       <use xlink:href="#DejaVuSans-30" x="190.869141"/>
      </g>
     </g>
    </g>
    <g id="xtick_4">
     <g id="line2d_4">
      <g>
       <use xlink:href="#mff557929fe" x="219.033684" y="307.584" style="stroke: #000000; stroke-width: 0.8"/>
      </g>
     </g>
     <g id="text_4">
      <!-- 7500 -->
      <g transform="translate(206.308684 322.182437) scale(0.1 -0.1)">
       <defs>
        <path id="DejaVuSans-37" d="M 525 4666 
L 3525 4666 
L 3525 4397 
L 1831 0 
L 1172 0 
L 2766 4134 
L 525 4134 
L 525 4666 
z
" transform="scale(0.015625)"/>
       </defs>
       <use xlink:href="#DejaVuSans-37"/>
       <use xlink:href="#DejaVuSans-35" x="63.623047"/>
       <use xlink:href="#DejaVuSans-30" x="127.246094"/>
       <use xlink:href="#DejaVuSans-30" x="190.869141"/>
      </g>
     </g>
    </g>
    <g id="xtick_5">
     <g id="line2d_5">
      <g>
       <use xlink:href="#mff557929fe" x="267.440457" y="307.584" style="stroke: #000000; stroke-width: 0.8"/>
      </g>
     </g>
     <g id="text_5">
      <!-- 10000 -->
      <g transform="translate(251.534207 322.182437) scale(0.1 -0.1)">
       <defs>
        <path id="DejaVuSans-31" d="M 794 531 
L 1825 531 
L 1825 4091 
L 703 3866 
L 703 4441 
L 1819 4666 
L 2450 4666 
L 2450 531 
L 3481 531 
L 3481 0 
L 794 0 
L 794 531 
z
" transform="scale(0.015625)"/>
       </defs>
       <use xlink:href="#DejaVuSans-31"/>
       <use xlink:href="#DejaVuSans-30" x="63.623047"/>
       <use xlink:href="#DejaVuSans-30" x="127.246094"/>
       <use xlink:href="#DejaVuSans-30" x="190.869141"/>
       <use xlink:href="#DejaVuSans-30" x="254.492188"/>
      </g>
     </g>
    </g>
    <g id="xtick_6">
     <g id="line2d_6">
      <g>
       <use xlink:href="#mff557929fe" x="315.84723" y="307.584" style="stroke: #000000; stroke-width: 0.8"/>
      </g>
     </g>
     <g id="text_6">
      <!-- 12500 -->
      <g transform="translate(299.94098 322.182437) scale(0.1 -0.1)">
       <use xlink:href="#DejaVuSans-31"/>
       <use xlink:href="#DejaVuSans-32" x="63.623047"/>
       <use xlink:href="#DejaVuSans-35" x="127.246094"/>
       <use xlink:href="#DejaVuSans-30" x="190.869141"/>
       <use xlink:href="#DejaVuSans-30" x="254.492188"/>
      </g>
     </g>
    </g>
    <g id="xtick_7">
     <g id="line2d_7">
      <g>
       <use xlink:href="#mff557929fe" x="364.254003" y="307.584" style="stroke: #000000; stroke-width: 0.8"/>
      </g>
     </g>
     <g id="text_7">
      <!-- 15000 -->
      <g transform="translate(348.347753 322.182437) scale(0.1 -0.1)">
       <use xlink:href="#DejaVuSans-31"/>
       <use xlink:href="#DejaVuSans-35" x="63.623047"/>
       <use xlink:href="#DejaVuSans-30" x="127.246094"/>
       <use xlink:href="#DejaVuSans-30" x="190.869141"/>
       <use xlink:href="#DejaVuSans-30" x="254.492188"/>
      </g>
     </g>
    </g>
    <g id="xtick_8">
     <g id="line2d_8">
      <g>
       <use xlink:href="#mff557929fe" x="412.660776" y="307.584" style="stroke: #000000; stroke-width: 0.8"/>
      </g>
     </g>
     <g id="text_8">
      <!-- 17500 -->
      <g transform="translate(396.754526 322.182437) scale(0.1 -0.1)">
       <use xlink:href="#DejaVuSans-31"/>
       <use xlink:href="#DejaVuSans-37" x="63.623047"/>
       <use xlink:href="#DejaVuSans-35" x="127.246094"/>
       <use xlink:href="#DejaVuSans-30" x="190.869141"/>
       <use xlink:href="#DejaVuSans-30" x="254.492188"/>
      </g>
     </g>
    </g>
    <g id="text_9">
     <!-- array size -->
     <g transform="translate(211.765469 335.860562) scale(0.1 -0.1)">
      <defs>
       <path id="DejaVuSans-61" d="M 2194 1759 
Q 1497 1759 1228 1600 
Q 959 1441 959 1056 
Q 959 750 1161 570 
Q 1363 391 1709 391 
Q 2188 391 2477 730 
Q 2766 1069 2766 1631 
L 2766 1759 
L 2194 1759 
z
M 3341 1997 
L 3341 0 
L 2766 0 
L 2766 531 
Q 2569 213 2275 61 
Q 1981 -91 1556 -91 
Q 1019 -91 701 211 
Q 384 513 384 1019 
Q 384 1609 779 1909 
Q 1175 2209 1959 2209 
L 2766 2209 
L 2766 2266 
Q 2766 2663 2505 2880 
Q 2244 3097 1772 3097 
Q 1472 3097 1187 3025 
Q 903 2953 641 2809 
L 641 3341 
Q 956 3463 1253 3523 
Q 1550 3584 1831 3584 
Q 2591 3584 2966 3190 
Q 3341 2797 3341 1997 
z
" transform="scale(0.015625)"/>
       <path id="DejaVuSans-72" d="M 2631 2963 
Q 2534 3019 2420 3045 
Q 2306 3072 2169 3072 
Q 1681 3072 1420 2755 
Q 1159 2438 1159 1844 
L 1159 0 
L 581 0 
L 581 3500 
L 1159 3500 
L 1159 2956 
Q 1341 3275 1631 3429 
Q 1922 3584 2338 3584 
Q 2397 3584 2469 3576 
Q 2541 3569 2628 3553 
L 2631 2963 
z
" transform="scale(0.015625)"/>
       <path id="DejaVuSans-79" d="M 2059 -325 
Q 1816 -950 1584 -1140 
Q 1353 -1331 966 -1331 
L 506 -1331 
L 506 -850 
L 844 -850 
Q 1081 -850 1212 -737 
Q 1344 -625 1503 -206 
L 1606 56 
L 191 3500 
L 800 3500 
L 1894 763 
L 2988 3500 
L 3597 3500 
L 2059 -325 
z
" transform="scale(0.015625)"/>
       <path id="DejaVuSans-20" transform="scale(0.015625)"/>
       <path id="DejaVuSans-73" d="M 2834 3397 
L 2834 2853 
Q 2591 2978 2328 3040 
Q 2066 3103 1784 3103 
Q 1356 3103 1142 2972 
Q 928 2841 928 2578 
Q 928 2378 1081 2264 
Q 1234 2150 1697 2047 
L 1894 2003 
Q 2506 1872 2764 1633 
Q 3022 1394 3022 966 
Q 3022 478 2636 193 
Q 2250 -91 1575 -91 
Q 1294 -91 989 -36 
Q 684 19 347 128 
L 347 722 
Q 666 556 975 473 
Q 1284 391 1588 391 
Q 1994 391 2212 530 
Q 2431 669 2431 922 
Q 2431 1156 2273 1281 
Q 2116 1406 1581 1522 
L 1381 1569 
Q 847 1681 609 1914 
Q 372 2147 372 2553 
Q 372 3047 722 3315 
Q 1072 3584 1716 3584 
Q 2034 3584 2315 3537 
Q 2597 3491 2834 3397 
z
" transform="scale(0.015625)"/>
       <path id="DejaVuSans-69" d="M 603 3500 
L 1178 3500 
L 1178 0 
L 603 0 
L 603 3500 
z
M 603 4863 
L 1178 4863 
L 1178 4134 
L 603 4134 
L 603 4863 
z
" transform="scale(0.015625)"/>
       <path id="DejaVuSans-7a" d="M 353 3500 
L 3084 3500 
L 3084 2975 
L 922 459 
L 3084 459 
L 3084 0 
L 275 0 
L 275 525 
L 2438 3041 
L 353 3041 
L 353 3500 
z
" transform="scale(0.015625)"/>
       <path id="DejaVuSans-65" d="M 3597 1894 
L 3597 1613 
L 953 1613 
Q 991 1019 1311 708 
Q 1631 397 2203 397 
Q 2534 397 2845 478 
Q 3156 559 3463 722 
L 3463 178 
Q 3153 47 2828 -22 
Q 2503 -91 2169 -91 
Q 1331 -91 842 396 
Q 353 884 353 1716 
Q 353 2575 817 3079 
Q 1281 3584 2069 3584 
Q 2775 3584 3186 3129 
Q 3597 2675 3597 1894 
z
M 3022 2063 
Q 3016 2534 2758 2815 
Q 2500 3097 2075 3097 
Q 1594 3097 1305 2825 
Q 1016 2553 972 2059 
L 3022 2063 
z
" transform="scale(0.015625)"/>
      </defs>
      <use xlink:href="#DejaVuSans-61"/>
      <use xlink:href="#DejaVuSans-72" x="61.279297"/>
      <use xlink:href="#DejaVuSans-72" x="100.642578"/>
      <use xlink:href="#DejaVuSans-61" x="141.755859"/>
      <use xlink:href="#DejaVuSans-79" x="203.035156"/>
      <use xlink:href="#DejaVuSans-20" x="262.214844"/>
      <use xlink:href="#DejaVuSans-73" x="294.001953"/>
      <use xlink:href="#DejaVuSans-69" x="346.101562"/>
      <use xlink:href="#DejaVuSans-7a" x="373.884766"/>
      <use xlink:href="#DejaVuSans-65" x="426.375"/>
     </g>
    </g>
   </g>
   <g id="matplotlib.axis_2">
    <g id="ytick_1">
     <g id="line2d_9">
      <defs>
       <path id="m11420af3b3" d="M 0 0 
L -3.5 0 
" style="stroke: #000000; stroke-width: 0.8"/>
      </defs>
      <g>
       <use xlink:href="#m11420af3b3" x="57.6" y="295.75484" style="stroke: #000000; stroke-width: 0.8"/>
      </g>
     </g>
     <g id="text_10">
      <!-- 0 -->
      <g transform="translate(44.2375 299.554059) scale(0.1 -0.1)">
       <use xlink:href="#DejaVuSans-30"/>
      </g>
     </g>
    </g>
    <g id="ytick_2">
     <g id="line2d_10">
      <g>
       <use xlink:href="#m11420af3b3" x="57.6" y="258.693745" style="stroke: #000000; stroke-width: 0.8"/>
      </g>
     </g>
     <g id="text_11">
      <!-- 5000 -->
      <g transform="translate(25.15 262.492964) scale(0.1 -0.1)">
       <use xlink:href="#DejaVuSans-35"/>
       <use xlink:href="#DejaVuSans-30" x="63.623047"/>
       <use xlink:href="#DejaVuSans-30" x="127.246094"/>
       <use xlink:href="#DejaVuSans-30" x="190.869141"/>
      </g>
     </g>
    </g>
    <g id="ytick_3">
     <g id="line2d_11">
      <g>
       <use xlink:href="#m11420af3b3" x="57.6" y="221.632651" style="stroke: #000000; stroke-width: 0.8"/>
      </g>
     </g>
     <g id="text_12">
      <!-- 10000 -->
      <g transform="translate(18.7875 225.43187) scale(0.1 -0.1)">
       <use xlink:href="#DejaVuSans-31"/>
       <use xlink:href="#DejaVuSans-30" x="63.623047"/>
       <use xlink:href="#DejaVuSans-30" x="127.246094"/>
       <use xlink:href="#DejaVuSans-30" x="190.869141"/>
       <use xlink:href="#DejaVuSans-30" x="254.492188"/>
      </g>
     </g>
    </g>
    <g id="ytick_4">
     <g id="line2d_12">
      <g>
       <use xlink:href="#m11420af3b3" x="57.6" y="184.571557" style="stroke: #000000; stroke-width: 0.8"/>
      </g>
     </g>
     <g id="text_13">
      <!-- 15000 -->
      <g transform="translate(18.7875 188.370775) scale(0.1 -0.1)">
       <use xlink:href="#DejaVuSans-31"/>
       <use xlink:href="#DejaVuSans-35" x="63.623047"/>
       <use xlink:href="#DejaVuSans-30" x="127.246094"/>
       <use xlink:href="#DejaVuSans-30" x="190.869141"/>
       <use xlink:href="#DejaVuSans-30" x="254.492188"/>
      </g>
     </g>
    </g>
    <g id="ytick_5">
     <g id="line2d_13">
      <g>
       <use xlink:href="#m11420af3b3" x="57.6" y="147.510462" style="stroke: #000000; stroke-width: 0.8"/>
      </g>
     </g>
     <g id="text_14">
      <!-- 20000 -->
      <g transform="translate(18.7875 151.309681) scale(0.1 -0.1)">
       <use xlink:href="#DejaVuSans-32"/>
       <use xlink:href="#DejaVuSans-30" x="63.623047"/>
       <use xlink:href="#DejaVuSans-30" x="127.246094"/>
       <use xlink:href="#DejaVuSans-30" x="190.869141"/>
       <use xlink:href="#DejaVuSans-30" x="254.492188"/>
      </g>
     </g>
    </g>
    <g id="ytick_6">
     <g id="line2d_14">
      <g>
       <use xlink:href="#m11420af3b3" x="57.6" y="110.449368" style="stroke: #000000; stroke-width: 0.8"/>
      </g>
     </g>
     <g id="text_15">
      <!-- 25000 -->
      <g transform="translate(18.7875 114.248586) scale(0.1 -0.1)">
       <use xlink:href="#DejaVuSans-32"/>
       <use xlink:href="#DejaVuSans-35" x="63.623047"/>
       <use xlink:href="#DejaVuSans-30" x="127.246094"/>
       <use xlink:href="#DejaVuSans-30" x="190.869141"/>
       <use xlink:href="#DejaVuSans-30" x="254.492188"/>
      </g>
     </g>
    </g>
    <g id="ytick_7">
     <g id="line2d_15">
      <g>
       <use xlink:href="#m11420af3b3" x="57.6" y="73.388273" style="stroke: #000000; stroke-width: 0.8"/>
      </g>
     </g>
     <g id="text_16">
      <!-- 30000 -->
      <g transform="translate(18.7875 77.187492) scale(0.1 -0.1)">
       <defs>
        <path id="DejaVuSans-33" d="M 2597 2516 
Q 3050 2419 3304 2112 
Q 3559 1806 3559 1356 
Q 3559 666 3084 287 
Q 2609 -91 1734 -91 
Q 1441 -91 1130 -33 
Q 819 25 488 141 
L 488 750 
Q 750 597 1062 519 
Q 1375 441 1716 441 
Q 2309 441 2620 675 
Q 2931 909 2931 1356 
Q 2931 1769 2642 2001 
Q 2353 2234 1838 2234 
L 1294 2234 
L 1294 2753 
L 1863 2753 
Q 2328 2753 2575 2939 
Q 2822 3125 2822 3475 
Q 2822 3834 2567 4026 
Q 2313 4219 1838 4219 
Q 1578 4219 1281 4162 
Q 984 4106 628 3988 
L 628 4550 
Q 988 4650 1302 4700 
Q 1616 4750 1894 4750 
Q 2613 4750 3031 4423 
Q 3450 4097 3450 3541 
Q 3450 3153 3228 2886 
Q 3006 2619 2597 2516 
z
" transform="scale(0.015625)"/>
       </defs>
       <use xlink:href="#DejaVuSans-33"/>
       <use xlink:href="#DejaVuSans-30" x="63.623047"/>
       <use xlink:href="#DejaVuSans-30" x="127.246094"/>
       <use xlink:href="#DejaVuSans-30" x="190.869141"/>
       <use xlink:href="#DejaVuSans-30" x="254.492188"/>
      </g>
     </g>
    </g>
    <g id="text_17">
     <!-- time (in nanoseconds) -->
     <g transform="translate(12.707812 230.360031) rotate(-90) scale(0.1 -0.1)">
      <defs>
       <path id="DejaVuSans-74" d="M 1172 4494 
L 1172 3500 
L 2356 3500 
L 2356 3053 
L 1172 3053 
L 1172 1153 
Q 1172 725 1289 603 
Q 1406 481 1766 481 
L 2356 481 
L 2356 0 
L 1766 0 
Q 1100 0 847 248 
Q 594 497 594 1153 
L 594 3053 
L 172 3053 
L 172 3500 
L 594 3500 
L 594 4494 
L 1172 4494 
z
" transform="scale(0.015625)"/>
       <path id="DejaVuSans-6d" d="M 3328 2828 
Q 3544 3216 3844 3400 
Q 4144 3584 4550 3584 
Q 5097 3584 5394 3201 
Q 5691 2819 5691 2113 
L 5691 0 
L 5113 0 
L 5113 2094 
Q 5113 2597 4934 2840 
Q 4756 3084 4391 3084 
Q 3944 3084 3684 2787 
Q 3425 2491 3425 1978 
L 3425 0 
L 2847 0 
L 2847 2094 
Q 2847 2600 2669 2842 
Q 2491 3084 2119 3084 
Q 1678 3084 1418 2786 
Q 1159 2488 1159 1978 
L 1159 0 
L 581 0 
L 581 3500 
L 1159 3500 
L 1159 2956 
Q 1356 3278 1631 3431 
Q 1906 3584 2284 3584 
Q 2666 3584 2933 3390 
Q 3200 3197 3328 2828 
z
" transform="scale(0.015625)"/>
       <path id="DejaVuSans-28" d="M 1984 4856 
Q 1566 4138 1362 3434 
Q 1159 2731 1159 2009 
Q 1159 1288 1364 580 
Q 1569 -128 1984 -844 
L 1484 -844 
Q 1016 -109 783 600 
Q 550 1309 550 2009 
Q 550 2706 781 3412 
Q 1013 4119 1484 4856 
L 1984 4856 
z
" transform="scale(0.015625)"/>
       <path id="DejaVuSans-6e" d="M 3513 2113 
L 3513 0 
L 2938 0 
L 2938 2094 
Q 2938 2591 2744 2837 
Q 2550 3084 2163 3084 
Q 1697 3084 1428 2787 
Q 1159 2491 1159 1978 
L 1159 0 
L 581 0 
L 581 3500 
L 1159 3500 
L 1159 2956 
Q 1366 3272 1645 3428 
Q 1925 3584 2291 3584 
Q 2894 3584 3203 3211 
Q 3513 2838 3513 2113 
z
" transform="scale(0.015625)"/>
       <path id="DejaVuSans-6f" d="M 1959 3097 
Q 1497 3097 1228 2736 
Q 959 2375 959 1747 
Q 959 1119 1226 758 
Q 1494 397 1959 397 
Q 2419 397 2687 759 
Q 2956 1122 2956 1747 
Q 2956 2369 2687 2733 
Q 2419 3097 1959 3097 
z
M 1959 3584 
Q 2709 3584 3137 3096 
Q 3566 2609 3566 1747 
Q 3566 888 3137 398 
Q 2709 -91 1959 -91 
Q 1206 -91 779 398 
Q 353 888 353 1747 
Q 353 2609 779 3096 
Q 1206 3584 1959 3584 
z
" transform="scale(0.015625)"/>
       <path id="DejaVuSans-63" d="M 3122 3366 
L 3122 2828 
Q 2878 2963 2633 3030 
Q 2388 3097 2138 3097 
Q 1578 3097 1268 2742 
Q 959 2388 959 1747 
Q 959 1106 1268 751 
Q 1578 397 2138 397 
Q 2388 397 2633 464 
Q 2878 531 3122 666 
L 3122 134 
Q 2881 22 2623 -34 
Q 2366 -91 2075 -91 
Q 1284 -91 818 406 
Q 353 903 353 1747 
Q 353 2603 823 3093 
Q 1294 3584 2113 3584 
Q 2378 3584 2631 3529 
Q 2884 3475 3122 3366 
z
" transform="scale(0.015625)"/>
       <path id="DejaVuSans-64" d="M 2906 2969 
L 2906 4863 
L 3481 4863 
L 3481 0 
L 2906 0 
L 2906 525 
Q 2725 213 2448 61 
Q 2172 -91 1784 -91 
Q 1150 -91 751 415 
Q 353 922 353 1747 
Q 353 2572 751 3078 
Q 1150 3584 1784 3584 
Q 2172 3584 2448 3432 
Q 2725 3281 2906 2969 
z
M 947 1747 
Q 947 1113 1208 752 
Q 1469 391 1925 391 
Q 2381 391 2643 752 
Q 2906 1113 2906 1747 
Q 2906 2381 2643 2742 
Q 2381 3103 1925 3103 
Q 1469 3103 1208 2742 
Q 947 2381 947 1747 
z
" transform="scale(0.015625)"/>
       <path id="DejaVuSans-29" d="M 513 4856 
L 1013 4856 
Q 1481 4119 1714 3412 
Q 1947 2706 1947 2009 
Q 1947 1309 1714 600 
Q 1481 -109 1013 -844 
L 513 -844 
Q 928 -128 1133 580 
Q 1338 1288 1338 2009 
Q 1338 2731 1133 3434 
Q 928 4138 513 4856 
z
" transform="scale(0.015625)"/>
      </defs>
      <use xlink:href="#DejaVuSans-74"/>
      <use xlink:href="#DejaVuSans-69" x="39.208984"/>
      <use xlink:href="#DejaVuSans-6d" x="66.992188"/>
      <use xlink:href="#DejaVuSans-65" x="164.404297"/>
      <use xlink:href="#DejaVuSans-20" x="225.927734"/>
      <use xlink:href="#DejaVuSans-28" x="257.714844"/>
      <use xlink:href="#DejaVuSans-69" x="296.728516"/>
      <use xlink:href="#DejaVuSans-6e" x="324.511719"/>
      <use xlink:href="#DejaVuSans-20" x="387.890625"/>
      <use xlink:href="#DejaVuSans-6e" x="419.677734"/>
      <use xlink:href="#DejaVuSans-61" x="483.056641"/>
      <use xlink:href="#DejaVuSans-6e" x="544.335938"/>
      <use xlink:href="#DejaVuSans-6f" x="607.714844"/>
      <use xlink:href="#DejaVuSans-73" x="668.896484"/>
      <use xlink:href="#DejaVuSans-65" x="720.996094"/>
      <use xlink:href="#DejaVuSans-63" x="782.519531"/>
      <use xlink:href="#DejaVuSans-6f" x="837.5"/>
      <use xlink:href="#DejaVuSans-6e" x="898.681641"/>
      <use xlink:href="#DejaVuSans-64" x="962.060547"/>
      <use xlink:href="#DejaVuSans-73" x="1025.537109"/>
      <use xlink:href="#DejaVuSans-29" x="1077.636719"/>
     </g>
    </g>
   </g>
   <g id="line2d_16">
    <path d="M 73.832727 294.709717 
L 73.85209 294.55406 
L 73.910178 295.480588 
L 73.890815 294.324282 
L 73.948904 295.473176 
L 73.968266 294.153801 
L 74.045717 295.473176 
L 74.103805 295.480588 
L 74.123168 293.612709 
L 74.200619 295.480588 
L 74.413609 295.480588 
L 74.432971 293.731304 
L 74.510422 295.465763 
L 74.704049 295.480588 
L 75.033215 295.458351 
L 75.052578 293.160563 
L 75.071941 295.480588 
L 75.130029 295.473176 
L 76.272429 295.473176 
L 76.291791 292.100616 
L 76.369242 295.473176 
L 78.750855 295.465763 
L 78.770218 289.387744 
L 78.789581 295.480588 
L 78.847669 295.458351 
L 79.157472 295.443527 
L 79.293011 295.480588 
L 79.467276 295.465763 
L 79.777079 295.473176 
L 79.951343 295.473176 
L 80.261147 295.473176 
L 83.707709 295.473176 
L 83.727072 285.992948 
L 83.746434 295.480588 
L 83.804523 295.465763 
L 84.114326 295.473176 
L 84.28859 295.473176 
L 84.617756 295.465763 
L 84.966285 295.480588 
L 85.334177 295.458351 
L 85.663343 295.473176 
L 85.992509 295.465763 
L 86.282949 295.473176 
L 86.418488 295.450939 
L 86.631478 295.480588 
L 91.201077 295.480588 
L 91.22044 295.258221 
L 91.297891 295.458351 
L 93.621416 295.473176 
L 93.640779 278.28424 
L 93.71823 295.465763 
L 93.853769 295.465763 
L 93.873131 295.280458 
L 93.950582 295.480588 
L 94.260385 295.436114 
L 94.395924 295.473176 
L 94.608914 295.473176 
L 94.628277 295.42129 
L 94.725091 295.465763 
L 95.054257 295.450939 
L 95.15107 295.473176 
L 95.170433 295.450939 
L 95.305972 295.324931 
L 95.325335 295.458351 
L 95.518962 295.473176 
L 95.809402 295.473176 
L 95.925578 295.458351 
L 96.099843 295.458351 
L 103.980466 295.480588 
L 103.999828 295.324931 
L 104.077279 295.473176 
L 106.342716 295.406466 
L 106.362079 295.310107 
L 106.420167 295.480588 
L 106.43953 295.473176 
L 113.44883 295.465763 
L 113.468193 261.955122 
L 113.487556 295.480588 
L 113.545644 295.480588 
L 113.719908 295.465763 
L 113.894173 295.473176 
L 122.162049 295.473176 
L 122.181412 294.924671 
L 122.220138 295.480588 
L 122.258863 295.450939 
L 122.626755 295.473176 
L 132.501736 295.465763 
L 132.521099 294.902435 
L 132.59855 295.480588 
L 132.927716 295.473176 
L 133.082617 295.465763 
L 133.10198 295.406466 
L 133.198794 295.458351 
L 133.392421 295.480588 
L 136.200014 295.473176 
L 136.219376 294.961732 
L 136.238739 295.480588 
L 136.296827 295.480588 
L 136.645356 295.465763 
L 136.800258 295.473176 
L 136.955159 295.458351 
L 137.148786 295.473176 
L 138.058834 295.480588 
L 138.078196 295.361992 
L 138.155647 295.450939 
L 138.310549 295.465763 
L 138.426725 295.450939 
L 138.562264 295.473176 
L 148.146805 295.465763 
L 148.166168 295.347168 
L 148.185531 295.480588 
L 148.243619 295.436114 
L 148.379158 295.480588 
L 148.553422 295.450939 
L 148.688961 295.465763 
L 148.843863 295.450939 
L 148.998764 295.480588 
L 149.114941 295.473176 
L 149.424744 295.480588 
L 149.734547 295.473176 
L 150.024988 295.473176 
L 150.373517 295.458351 
L 150.722046 295.473176 
L 150.818859 295.465763 
L 150.838222 295.361992 
L 150.915673 295.465763 
L 151.167388 295.465763 
L 151.32229 295.413878 
L 151.419103 295.480588 
L 151.438466 295.458351 
L 151.709544 295.473176 
L 153.103659 295.480588 
L 153.123022 232.246948 
L 153.200472 295.480588 
L 153.394099 295.465763 
L 159.803156 295.473176 
L 159.822519 295.332343 
L 159.89997 295.450939 
L 160.016146 295.473176 
L 160.035509 295.458351 
L 160.151685 295.480588 
L 160.267861 295.450939 
L 160.442126 295.465763 
L 160.519576 295.458351 
L 160.538939 294.55406 
L 160.577665 295.473176 
L 160.61639 295.465763 
L 160.810017 295.480588 
L 161.874966 295.473176 
L 161.894329 295.339756 
L 161.991142 295.428702 
L 162.126681 295.473176 
L 162.281583 295.465763 
L 162.455847 295.473176 
L 165.708783 295.450939 
L 165.728145 295.361992 
L 165.786233 295.473176 
L 165.805596 295.465763 
L 165.941135 295.473176 
L 166.870545 295.473176 
L 166.889908 295.065504 
L 166.947996 295.480588 
L 166.967359 295.480588 
L 171.459507 295.473176 
L 171.47887 295.35458 
L 171.556321 295.465763 
L 171.827399 295.480588 
L 172.079114 295.436114 
L 172.098477 294.902435 
L 172.175927 295.480588 
L 172.388917 295.450939 
L 172.640632 295.458351 
L 172.679358 295.473176 
L 172.698721 295.147038 
L 172.718083 295.480588 
L 172.776171 295.428702 
L 172.872985 295.413878 
L 172.969798 295.473176 
L 172.989161 295.458351 
L 186.330068 295.413878 
L 186.349431 295.324931 
L 186.388156 295.465763 
L 186.426881 295.465763 
L 186.736685 295.480588 
L 186.930312 295.458351 
L 187.278841 295.473176 
L 187.453105 295.473176 
L 187.782271 295.458351 
L 187.975898 295.473176 
L 188.150162 295.465763 
L 188.440603 295.465763 
L 188.556779 295.480588 
L 189.428101 295.465763 
L 189.447464 295.095152 
L 189.466827 295.473176 
L 189.524915 295.450939 
L 189.660454 295.473176 
L 189.834718 295.465763 
L 190.008983 295.465763 
L 190.299423 295.465763 
L 190.570501 295.473176 
L 190.860942 295.473176 
L 191.054569 295.443527 
L 191.209471 295.473176 
L 191.403098 295.473176 
L 191.42246 295.35458 
L 191.519274 295.450939 
L 191.712901 295.473176 
L 191.867803 295.480588 
L 191.906528 295.458351 
L 191.925891 294.872786 
L 191.945254 295.473176 
L 192.003342 295.473176 
L 194.810934 295.450939 
L 194.830297 295.250809 
L 194.907748 295.480588 
L 195.236914 295.473176 
L 195.527355 295.473176 
L 195.856521 295.458351 
L 195.99206 295.473176 
L 196.127599 295.450939 
L 196.321226 295.473176 
L 197.754066 295.473176 
L 197.773429 295.265633 
L 197.85088 295.465763 
L 200.581022 295.465763 
L 200.600385 295.339756 
L 200.63911 295.480588 
L 200.677835 295.480588 
L 200.987639 295.458351 
L 201.14254 295.473176 
L 211.385414 295.473176 
L 211.404776 295.324931 
L 211.482227 295.480588 
L 211.733942 295.473176 
L 211.753305 294.902435 
L 211.830756 295.473176 
L 222.518971 295.480588 
L 222.538334 295.35458 
L 222.615785 295.458351 
L 222.770687 295.450939 
L 227.766266 295.450939 
L 227.785628 295.324931 
L 227.804991 295.480588 
L 227.863079 295.458351 
L 228.037343 295.473176 
L 228.134157 295.450939 
L 228.15352 295.465763 
L 228.463323 295.465763 
L 232.413316 295.465763 
L 232.432678 172.504464 
L 232.510129 295.480588 
L 232.819933 295.465763 
L 232.936109 295.473176 
L 232.955472 295.413878 
L 233.052285 295.465763 
L 233.362089 295.458351 
L 233.555716 295.473176 
L 240.952271 295.458351 
L 240.971633 295.228572 
L 241.029721 295.480588 
L 241.049084 295.450939 
L 241.339525 295.443527 
L 241.513789 295.473176 
L 241.668691 295.450939 
L 241.862318 295.480588 
L 242.036582 295.473176 
L 251.078967 295.458351 
L 251.09833 295.317519 
L 251.137056 295.473176 
L 251.175781 295.465763 
L 251.31132 295.458351 
L 251.330683 294.865374 
L 251.388771 295.465763 
L 251.408134 295.465763 
L 251.563035 295.458351 
L 257.972092 295.443527 
L 257.991455 295.235985 
L 258.03018 295.480588 
L 258.068905 295.480588 
L 267.730897 295.473176 
L 267.75026 294.976557 
L 267.827711 295.465763 
L 268.137514 295.465763 
L 268.369867 295.458351 
L 268.389229 295.413878 
L 268.46668 295.473176 
L 271.138734 295.473176 
L 271.158097 294.895022 
L 271.235548 295.465763 
L 273.868876 295.450939 
L 273.888239 295.347168 
L 273.96569 295.473176 
L 274.25613 295.42129 
L 274.352944 295.473176 
L 274.372307 295.458351 
L 283.124251 295.480588 
L 283.143614 295.317519 
L 283.221065 295.473176 
L 290.966148 295.480588 
L 290.985511 294.909847 
L 291.062962 295.458351 
L 297.394568 295.480588 
L 297.413931 295.317519 
L 297.491381 295.473176 
L 305.333279 295.480588 
L 305.352641 295.347168 
L 305.430092 295.465763 
L 305.720533 295.473176 
L 310.793563 295.473176 
L 310.812925 294.917259 
L 310.890376 295.443527 
L 311.025915 295.443527 
L 311.413169 295.473176 
L 311.722973 295.473176 
L 312.013413 295.480588 
L 312.20704 295.458351 
L 312.400668 295.473176 
L 312.574932 295.458351 
L 312.710471 295.465763 
L 313.000912 295.473176 
L 313.252627 295.465763 
L 313.407528 295.443527 
L 313.56243 295.465763 
L 313.872233 295.480588 
L 314.046498 295.473176 
L 319.06144 295.473176 
L 319.080802 295.273046 
L 319.158253 295.458351 
L 319.332517 295.473176 
L 319.506782 295.465763 
L 326.457994 295.42129 
L 326.477357 295.295282 
L 326.49672 295.480588 
L 326.554808 295.458351 
L 326.748435 295.480588 
L 326.883974 295.347168 
L 326.942062 295.443527 
L 327.077601 295.465763 
L 327.368042 295.450939 
L 327.522943 295.473176 
L 327.832747 295.465763 
L 328.084462 295.480588 
L 328.200638 295.465763 
L 328.549167 295.480588 
L 328.897696 295.450939 
L 329.033235 295.458351 
L 330.620977 295.465763 
L 330.64034 294.909847 
L 330.679065 295.480588 
L 330.71779 295.473176 
L 330.853329 295.458351 
L 331.182495 295.473176 
L 331.511662 295.450939 
L 331.666563 295.480588 
L 331.802102 295.480588 
L 332.150631 295.458351 
L 332.344258 295.480588 
L 332.673424 295.450939 
L 332.828326 295.480588 
L 333.00259 295.465763 
L 333.312394 295.473176 
L 333.622197 295.465763 
L 333.815824 295.480588 
L 334.14499 295.458351 
L 334.338617 295.473176 
L 345.278548 295.465763 
L 345.297911 295.132213 
L 345.375361 295.480588 
L 350.448391 295.473176 
L 350.467754 294.902435 
L 350.545205 295.473176 
L 355.482696 295.458351 
L 355.502058 295.35458 
L 355.521421 295.465763 
L 355.579509 295.465763 
L 355.753773 295.473176 
L 356.044214 295.465763 
L 356.237841 295.480588 
L 357.844946 295.42129 
L 357.864309 295.28787 
L 357.883671 295.473176 
L 357.94176 295.480588 
L 358.270926 295.473176 
L 360.381461 295.480588 
L 360.400824 295.317519 
L 360.478275 295.480588 
L 370.275805 295.465763 
L 370.295168 294.895022 
L 370.314531 295.473176 
L 370.372619 295.473176 
L 382.300048 295.473176 
L 382.319411 295.184099 
L 382.396861 295.450939 
L 382.551763 295.473176 
L 382.726027 295.473176 
L 383.055193 295.458351 
L 383.210095 295.450939 
L 383.500536 295.458351 
L 383.694163 295.480588 
L 383.868427 295.436114 
L 384.003966 295.473176 
L 384.120142 295.443527 
L 384.294407 295.480588 
L 384.60421 295.458351 
L 384.642936 295.473176 
L 384.662298 295.443527 
L 384.681661 295.376817 
L 384.701024 295.473176 
L 384.759112 295.480588 
L 385.088278 295.465763 
L 385.417444 295.473176 
L 391.03263 295.465763 
L 391.051992 53.568 
L 391.090718 295.480588 
L 391.129443 295.465763 
L 398.487273 295.458351 
L 398.487273 295.458351 
" clip-path="url(#p6275a132c4)" style="fill: none; stroke: #800080; stroke-width: 1.5; stroke-linecap: square"/>
   </g>
   <g id="patch_3">
    <path d="M 57.6 307.584 
L 57.6 41.472 
" style="fill: none; stroke: #000000; stroke-width: 0.8; stroke-linejoin: miter; stroke-linecap: square"/>
   </g>
   <g id="patch_4">
    <path d="M 414.72 307.584 
L 414.72 41.472 
" style="fill: none; stroke: #000000; stroke-width: 0.8; stroke-linejoin: miter; stroke-linecap: square"/>
   </g>
   <g id="patch_5">
    <path d="M 57.6 307.584 
L 414.72 307.584 
" style="fill: none; stroke: #000000; stroke-width: 0.8; stroke-linejoin: miter; stroke-linecap: square"/>
   </g>
   <g id="patch_6">
    <path d="M 57.6 41.472 
L 414.72 41.472 
" style="fill: none; stroke: #000000; stroke-width: 0.8; stroke-linejoin: miter; stroke-linecap: square"/>
   </g>
  </g>
 </g>
 <defs>
  <clipPath id="p6275a132c4">
   <rect x="57.6" y="41.472" width="357.12" height="266.112"/>
  </clipPath>
 </defs>
</svg>
