<?xml version="1.0" encoding="utf-8" standalone="no"?>
<!DOCTYPE svg PUBLIC "-//W3C//DTD SVG 1.1//EN"
  "http://www.w3.org/Graphics/SVG/1.1/DTD/svg11.dtd">
<svg xmlns:xlink="http://www.w3.org/1999/xlink" width="460.8pt" height="345.6pt" viewBox="0 0 460.8 345.6" xmlns="http://www.w3.org/2000/svg" version="1.1">
 <metadata>
  <rdf:RDF xmlns:dc="http://purl.org/dc/elements/1.1/" xmlns:cc="http://creativecommons.org/ns#" xmlns:rdf="http://www.w3.org/1999/02/22-rdf-syntax-ns#">
   <cc:Work>
    <dc:type rdf:resource="http://purl.org/dc/dcmitype/StillImage"/>
    <dc:date>2023-10-28T01:23:08.817724</dc:date>
    <dc:format>image/svg+xml</dc:format>
    <dc:creator>
     <cc:Agent>
      <dc:title>Matplotlib v3.8.0, https://matplotlib.org/</dc:title>
     </cc:Agent>
    </dc:creator>
   </cc:Work>
  </rdf:RDF>
 </metadata>
 <defs>
  <style type="text/css">*{stroke-linejoin: round; stroke-linecap: butt}</style>
 </defs>
 <g id="figure_1">
  <g id="patch_1">
   <path d="M 0 345.6 
L 460.8 345.6 
L 460.8 0 
L 0 0 
L 0 345.6 
z
" style="fill: none; opacity: 0"/>
  </g>
  <g id="axes_1">
   <g id="patch_2">
    <path d="M 57.6 307.584 
L 414.72 307.584 
L 414.72 41.472 
L 57.6 41.472 
L 57.6 307.584 
z
" style="fill: none"/>
   </g>
   <g id="matplotlib.axis_1">
    <g id="xtick_1">
     <g id="line2d_1">
      <defs>
       <path id="m158c8f8390" d="M 0 0 
L 0 3.5 
" style="stroke: #000000; stroke-width: 0.8"/>
      </defs>
      <g>
       <use xlink:href="#m158c8f8390" x="73.813365" y="307.584" style="stroke: #000000; stroke-width: 0.8"/>
      </g>
     </g>
     <g id="text_1">
      <!-- 0 -->
      <g transform="translate(70.632115 322.182437) scale(0.1 -0.1)">
       <defs>
        <path id="DejaVuSans-30" d="M 2034 4250 
Q 1547 4250 1301 3770 
Q 1056 3291 1056 2328 
Q 1056 1369 1301 889 
Q 1547 409 2034 409 
Q 2525 409 2770 889 
Q 3016 1369 3016 2328 
Q 3016 3291 2770 3770 
Q 2525 4250 2034 4250 
z
M 2034 4750 
Q 2819 4750 3233 4129 
Q 3647 3509 3647 2328 
Q 3647 1150 3233 529 
Q 2819 -91 2034 -91 
Q 1250 -91 836 529 
Q 422 1150 422 2328 
Q 422 3509 836 4129 
Q 1250 4750 2034 4750 
z
" transform="scale(0.015625)"/>
       </defs>
       <use xlink:href="#DejaVuSans-30"/>
      </g>
     </g>
    </g>
    <g id="xtick_2">
     <g id="line2d_2">
      <g>
       <use xlink:href="#m158c8f8390" x="122.220138" y="307.584" style="stroke: #000000; stroke-width: 0.8"/>
      </g>
     </g>
     <g id="text_2">
      <!-- 2500 -->
      <g transform="translate(109.495138 322.182437) scale(0.1 -0.1)">
       <defs>
        <path id="DejaVuSans-32" d="M 1228 531 
L 3431 531 
L 3431 0 
L 469 0 
L 469 531 
Q 828 903 1448 1529 
Q 2069 2156 2228 2338 
Q 2531 2678 2651 2914 
Q 2772 3150 2772 3378 
Q 2772 3750 2511 3984 
Q 2250 4219 1831 4219 
Q 1534 4219 1204 4116 
Q 875 4013 500 3803 
L 500 4441 
Q 881 4594 1212 4672 
Q 1544 4750 1819 4750 
Q 2544 4750 2975 4387 
Q 3406 4025 3406 3419 
Q 3406 3131 3298 2873 
Q 3191 2616 2906 2266 
Q 2828 2175 2409 1742 
Q 1991 1309 1228 531 
z
" transform="scale(0.015625)"/>
        <path id="DejaVuSans-35" d="M 691 4666 
L 3169 4666 
L 3169 4134 
L 1269 4134 
L 1269 2991 
Q 1406 3038 1543 3061 
Q 1681 3084 1819 3084 
Q 2600 3084 3056 2656 
Q 3513 2228 3513 1497 
Q 3513 744 3044 326 
Q 2575 -91 1722 -91 
Q 1428 -91 1123 -41 
Q 819 9 494 109 
L 494 744 
Q 775 591 1075 516 
Q 1375 441 1709 441 
Q 2250 441 2565 725 
Q 2881 1009 2881 1497 
Q 2881 1984 2565 2268 
Q 2250 2553 1709 2553 
Q 1456 2553 1204 2497 
Q 953 2441 691 2322 
L 691 4666 
z
" transform="scale(0.015625)"/>
       </defs>
       <use xlink:href="#DejaVuSans-32"/>
       <use xlink:href="#DejaVuSans-35" x="63.623047"/>
       <use xlink:href="#DejaVuSans-30" x="127.246094"/>
       <use xlink:href="#DejaVuSans-30" x="190.869141"/>
      </g>
     </g>
    </g>
    <g id="xtick_3">
     <g id="line2d_3">
      <g>
       <use xlink:href="#m158c8f8390" x="170.626911" y="307.584" style="stroke: #000000; stroke-width: 0.8"/>
      </g>
     </g>
     <g id="text_3">
      <!-- 5000 -->
      <g transform="translate(157.901911 322.182437) scale(0.1 -0.1)">
       <use xlink:href="#DejaVuSans-35"/>
       <use xlink:href="#DejaVuSans-30" x="63.623047"/>
       <use xlink:href="#DejaVuSans-30" x="127.246094"/>
       <use xlink:href="#DejaVuSans-30" x="190.869141"/>
      </g>
     </g>
    </g>
    <g id="xtick_4">
     <g id="line2d_4">
      <g>
       <use xlink:href="#m158c8f8390" x="219.033684" y="307.584" style="stroke: #000000; stroke-width: 0.8"/>
      </g>
     </g>
     <g id="text_4">
      <!-- 7500 -->
      <g transform="translate(206.308684 322.182437) scale(0.1 -0.1)">
       <defs>
        <path id="DejaVuSans-37" d="M 525 4666 
L 3525 4666 
L 3525 4397 
L 1831 0 
L 1172 0 
L 2766 4134 
L 525 4134 
L 525 4666 
z
" transform="scale(0.015625)"/>
       </defs>
       <use xlink:href="#DejaVuSans-37"/>
       <use xlink:href="#DejaVuSans-35" x="63.623047"/>
       <use xlink:href="#DejaVuSans-30" x="127.246094"/>
       <use xlink:href="#DejaVuSans-30" x="190.869141"/>
      </g>
     </g>
    </g>
    <g id="xtick_5">
     <g id="line2d_5">
      <g>
       <use xlink:href="#m158c8f8390" x="267.440457" y="307.584" style="stroke: #000000; stroke-width: 0.8"/>
      </g>
     </g>
     <g id="text_5">
      <!-- 10000 -->
      <g transform="translate(251.534207 322.182437) scale(0.1 -0.1)">
       <defs>
        <path id="DejaVuSans-31" d="M 794 531 
L 1825 531 
L 1825 4091 
L 703 3866 
L 703 4441 
L 1819 4666 
L 2450 4666 
L 2450 531 
L 3481 531 
L 3481 0 
L 794 0 
L 794 531 
z
" transform="scale(0.015625)"/>
       </defs>
       <use xlink:href="#DejaVuSans-31"/>
       <use xlink:href="#DejaVuSans-30" x="63.623047"/>
       <use xlink:href="#DejaVuSans-30" x="127.246094"/>
       <use xlink:href="#DejaVuSans-30" x="190.869141"/>
       <use xlink:href="#DejaVuSans-30" x="254.492188"/>
      </g>
     </g>
    </g>
    <g id="xtick_6">
     <g id="line2d_6">
      <g>
       <use xlink:href="#m158c8f8390" x="315.84723" y="307.584" style="stroke: #000000; stroke-width: 0.8"/>
      </g>
     </g>
     <g id="text_6">
      <!-- 12500 -->
      <g transform="translate(299.94098 322.182437) scale(0.1 -0.1)">
       <use xlink:href="#DejaVuSans-31"/>
       <use xlink:href="#DejaVuSans-32" x="63.623047"/>
       <use xlink:href="#DejaVuSans-35" x="127.246094"/>
       <use xlink:href="#DejaVuSans-30" x="190.869141"/>
       <use xlink:href="#DejaVuSans-30" x="254.492188"/>
      </g>
     </g>
    </g>
    <g id="xtick_7">
     <g id="line2d_7">
      <g>
       <use xlink:href="#m158c8f8390" x="364.254003" y="307.584" style="stroke: #000000; stroke-width: 0.8"/>
      </g>
     </g>
     <g id="text_7">
      <!-- 15000 -->
      <g transform="translate(348.347753 322.182437) scale(0.1 -0.1)">
       <use xlink:href="#DejaVuSans-31"/>
       <use xlink:href="#DejaVuSans-35" x="63.623047"/>
       <use xlink:href="#DejaVuSans-30" x="127.246094"/>
       <use xlink:href="#DejaVuSans-30" x="190.869141"/>
       <use xlink:href="#DejaVuSans-30" x="254.492188"/>
      </g>
     </g>
    </g>
    <g id="xtick_8">
     <g id="line2d_8">
      <g>
       <use xlink:href="#m158c8f8390" x="412.660776" y="307.584" style="stroke: #000000; stroke-width: 0.8"/>
      </g>
     </g>
     <g id="text_8">
      <!-- 17500 -->
      <g transform="translate(396.754526 322.182437) scale(0.1 -0.1)">
       <use xlink:href="#DejaVuSans-31"/>
       <use xlink:href="#DejaVuSans-37" x="63.623047"/>
       <use xlink:href="#DejaVuSans-35" x="127.246094"/>
       <use xlink:href="#DejaVuSans-30" x="190.869141"/>
       <use xlink:href="#DejaVuSans-30" x="254.492188"/>
      </g>
     </g>
    </g>
    <g id="text_9">
     <!-- array size -->
     <g transform="translate(211.765469 335.860562) scale(0.1 -0.1)">
      <defs>
       <path id="DejaVuSans-61" d="M 2194 1759 
Q 1497 1759 1228 1600 
Q 959 1441 959 1056 
Q 959 750 1161 570 
Q 1363 391 1709 391 
Q 2188 391 2477 730 
Q 2766 1069 2766 1631 
L 2766 1759 
L 2194 1759 
z
M 3341 1997 
L 3341 0 
L 2766 0 
L 2766 531 
Q 2569 213 2275 61 
Q 1981 -91 1556 -91 
Q 1019 -91 701 211 
Q 384 513 384 1019 
Q 384 1609 779 1909 
Q 1175 2209 1959 2209 
L 2766 2209 
L 2766 2266 
Q 2766 2663 2505 2880 
Q 2244 3097 1772 3097 
Q 1472 3097 1187 3025 
Q 903 2953 641 2809 
L 641 3341 
Q 956 3463 1253 3523 
Q 1550 3584 1831 3584 
Q 2591 3584 2966 3190 
Q 3341 2797 3341 1997 
z
" transform="scale(0.015625)"/>
       <path id="DejaVuSans-72" d="M 2631 2963 
Q 2534 3019 2420 3045 
Q 2306 3072 2169 3072 
Q 1681 3072 1420 2755 
Q 1159 2438 1159 1844 
L 1159 0 
L 581 0 
L 581 3500 
L 1159 3500 
L 1159 2956 
Q 1341 3275 1631 3429 
Q 1922 3584 2338 3584 
Q 2397 3584 2469 3576 
Q 2541 3569 2628 3553 
L 2631 2963 
z
" transform="scale(0.015625)"/>
       <path id="DejaVuSans-79" d="M 2059 -325 
Q 1816 -950 1584 -1140 
Q 1353 -1331 966 -1331 
L 506 -1331 
L 506 -850 
L 844 -850 
Q 1081 -850 1212 -737 
Q 1344 -625 1503 -206 
L 1606 56 
L 191 3500 
L 800 3500 
L 1894 763 
L 2988 3500 
L 3597 3500 
L 2059 -325 
z
" transform="scale(0.015625)"/>
       <path id="DejaVuSans-20" transform="scale(0.015625)"/>
       <path id="DejaVuSans-73" d="M 2834 3397 
L 2834 2853 
Q 2591 2978 2328 3040 
Q 2066 3103 1784 3103 
Q 1356 3103 1142 2972 
Q 928 2841 928 2578 
Q 928 2378 1081 2264 
Q 1234 2150 1697 2047 
L 1894 2003 
Q 2506 1872 2764 1633 
Q 3022 1394 3022 966 
Q 3022 478 2636 193 
Q 2250 -91 1575 -91 
Q 1294 -91 989 -36 
Q 684 19 347 128 
L 347 722 
Q 666 556 975 473 
Q 1284 391 1588 391 
Q 1994 391 2212 530 
Q 2431 669 2431 922 
Q 2431 1156 2273 1281 
Q 2116 1406 1581 1522 
L 1381 1569 
Q 847 1681 609 1914 
Q 372 2147 372 2553 
Q 372 3047 722 3315 
Q 1072 3584 1716 3584 
Q 2034 3584 2315 3537 
Q 2597 3491 2834 3397 
z
" transform="scale(0.015625)"/>
       <path id="DejaVuSans-69" d="M 603 3500 
L 1178 3500 
L 1178 0 
L 603 0 
L 603 3500 
z
M 603 4863 
L 1178 4863 
L 1178 4134 
L 603 4134 
L 603 4863 
z
" transform="scale(0.015625)"/>
       <path id="DejaVuSans-7a" d="M 353 3500 
L 3084 3500 
L 3084 2975 
L 922 459 
L 3084 459 
L 3084 0 
L 275 0 
L 275 525 
L 2438 3041 
L 353 3041 
L 353 3500 
z
" transform="scale(0.015625)"/>
       <path id="DejaVuSans-65" d="M 3597 1894 
L 3597 1613 
L 953 1613 
Q 991 1019 1311 708 
Q 1631 397 2203 397 
Q 2534 397 2845 478 
Q 3156 559 3463 722 
L 3463 178 
Q 3153 47 2828 -22 
Q 2503 -91 2169 -91 
Q 1331 -91 842 396 
Q 353 884 353 1716 
Q 353 2575 817 3079 
Q 1281 3584 2069 3584 
Q 2775 3584 3186 3129 
Q 3597 2675 3597 1894 
z
M 3022 2063 
Q 3016 2534 2758 2815 
Q 2500 3097 2075 3097 
Q 1594 3097 1305 2825 
Q 1016 2553 972 2059 
L 3022 2063 
z
" transform="scale(0.015625)"/>
      </defs>
      <use xlink:href="#DejaVuSans-61"/>
      <use xlink:href="#DejaVuSans-72" x="61.279297"/>
      <use xlink:href="#DejaVuSans-72" x="100.642578"/>
      <use xlink:href="#DejaVuSans-61" x="141.755859"/>
      <use xlink:href="#DejaVuSans-79" x="203.035156"/>
      <use xlink:href="#DejaVuSans-20" x="262.214844"/>
      <use xlink:href="#DejaVuSans-73" x="294.001953"/>
      <use xlink:href="#DejaVuSans-69" x="346.101562"/>
      <use xlink:href="#DejaVuSans-7a" x="373.884766"/>
      <use xlink:href="#DejaVuSans-65" x="426.375"/>
     </g>
    </g>
   </g>
   <g id="matplotlib.axis_2">
    <g id="ytick_1">
     <g id="line2d_9">
      <defs>
       <path id="m9dd20ee702" d="M 0 0 
L -3.5 0 
" style="stroke: #000000; stroke-width: 0.8"/>
      </defs>
      <g>
       <use xlink:href="#m9dd20ee702" x="57.6" y="295.786911" style="stroke: #000000; stroke-width: 0.8"/>
      </g>
     </g>
     <g id="text_10">
      <!-- 0 -->
      <g transform="translate(44.2375 299.58613) scale(0.1 -0.1)">
       <use xlink:href="#DejaVuSans-30"/>
      </g>
     </g>
    </g>
    <g id="ytick_2">
     <g id="line2d_10">
      <g>
       <use xlink:href="#m9dd20ee702" x="57.6" y="249.800635" style="stroke: #000000; stroke-width: 0.8"/>
      </g>
     </g>
     <g id="text_11">
      <!-- 10000 -->
      <g transform="translate(18.7875 253.599854) scale(0.1 -0.1)">
       <use xlink:href="#DejaVuSans-31"/>
       <use xlink:href="#DejaVuSans-30" x="63.623047"/>
       <use xlink:href="#DejaVuSans-30" x="127.246094"/>
       <use xlink:href="#DejaVuSans-30" x="190.869141"/>
       <use xlink:href="#DejaVuSans-30" x="254.492188"/>
      </g>
     </g>
    </g>
    <g id="ytick_3">
     <g id="line2d_11">
      <g>
       <use xlink:href="#m9dd20ee702" x="57.6" y="203.81436" style="stroke: #000000; stroke-width: 0.8"/>
      </g>
     </g>
     <g id="text_12">
      <!-- 20000 -->
      <g transform="translate(18.7875 207.613578) scale(0.1 -0.1)">
       <use xlink:href="#DejaVuSans-32"/>
       <use xlink:href="#DejaVuSans-30" x="63.623047"/>
       <use xlink:href="#DejaVuSans-30" x="127.246094"/>
       <use xlink:href="#DejaVuSans-30" x="190.869141"/>
       <use xlink:href="#DejaVuSans-30" x="254.492188"/>
      </g>
     </g>
    </g>
    <g id="ytick_4">
     <g id="line2d_12">
      <g>
       <use xlink:href="#m9dd20ee702" x="57.6" y="157.828084" style="stroke: #000000; stroke-width: 0.8"/>
      </g>
     </g>
     <g id="text_13">
      <!-- 30000 -->
      <g transform="translate(18.7875 161.627303) scale(0.1 -0.1)">
       <defs>
        <path id="DejaVuSans-33" d="M 2597 2516 
Q 3050 2419 3304 2112 
Q 3559 1806 3559 1356 
Q 3559 666 3084 287 
Q 2609 -91 1734 -91 
Q 1441 -91 1130 -33 
Q 819 25 488 141 
L 488 750 
Q 750 597 1062 519 
Q 1375 441 1716 441 
Q 2309 441 2620 675 
Q 2931 909 2931 1356 
Q 2931 1769 2642 2001 
Q 2353 2234 1838 2234 
L 1294 2234 
L 1294 2753 
L 1863 2753 
Q 2328 2753 2575 2939 
Q 2822 3125 2822 3475 
Q 2822 3834 2567 4026 
Q 2313 4219 1838 4219 
Q 1578 4219 1281 4162 
Q 984 4106 628 3988 
L 628 4550 
Q 988 4650 1302 4700 
Q 1616 4750 1894 4750 
Q 2613 4750 3031 4423 
Q 3450 4097 3450 3541 
Q 3450 3153 3228 2886 
Q 3006 2619 2597 2516 
z
" transform="scale(0.015625)"/>
       </defs>
       <use xlink:href="#DejaVuSans-33"/>
       <use xlink:href="#DejaVuSans-30" x="63.623047"/>
       <use xlink:href="#DejaVuSans-30" x="127.246094"/>
       <use xlink:href="#DejaVuSans-30" x="190.869141"/>
       <use xlink:href="#DejaVuSans-30" x="254.492188"/>
      </g>
     </g>
    </g>
    <g id="ytick_5">
     <g id="line2d_13">
      <g>
       <use xlink:href="#m9dd20ee702" x="57.6" y="111.841808" style="stroke: #000000; stroke-width: 0.8"/>
      </g>
     </g>
     <g id="text_14">
      <!-- 40000 -->
      <g transform="translate(18.7875 115.641027) scale(0.1 -0.1)">
       <defs>
        <path id="DejaVuSans-34" d="M 2419 4116 
L 825 1625 
L 2419 1625 
L 2419 4116 
z
M 2253 4666 
L 3047 4666 
L 3047 1625 
L 3713 1625 
L 3713 1100 
L 3047 1100 
L 3047 0 
L 2419 0 
L 2419 1100 
L 313 1100 
L 313 1709 
L 2253 4666 
z
" transform="scale(0.015625)"/>
       </defs>
       <use xlink:href="#DejaVuSans-34"/>
       <use xlink:href="#DejaVuSans-30" x="63.623047"/>
       <use xlink:href="#DejaVuSans-30" x="127.246094"/>
       <use xlink:href="#DejaVuSans-30" x="190.869141"/>
       <use xlink:href="#DejaVuSans-30" x="254.492188"/>
      </g>
     </g>
    </g>
    <g id="ytick_6">
     <g id="line2d_14">
      <g>
       <use xlink:href="#m9dd20ee702" x="57.6" y="65.855533" style="stroke: #000000; stroke-width: 0.8"/>
      </g>
     </g>
     <g id="text_15">
      <!-- 50000 -->
      <g transform="translate(18.7875 69.654752) scale(0.1 -0.1)">
       <use xlink:href="#DejaVuSans-35"/>
       <use xlink:href="#DejaVuSans-30" x="63.623047"/>
       <use xlink:href="#DejaVuSans-30" x="127.246094"/>
       <use xlink:href="#DejaVuSans-30" x="190.869141"/>
       <use xlink:href="#DejaVuSans-30" x="254.492188"/>
      </g>
     </g>
    </g>
    <g id="text_16">
     <!-- time (in nanoseconds) -->
     <g transform="translate(12.707812 230.360031) rotate(-90) scale(0.1 -0.1)">
      <defs>
       <path id="DejaVuSans-74" d="M 1172 4494 
L 1172 3500 
L 2356 3500 
L 2356 3053 
L 1172 3053 
L 1172 1153 
Q 1172 725 1289 603 
Q 1406 481 1766 481 
L 2356 481 
L 2356 0 
L 1766 0 
Q 1100 0 847 248 
Q 594 497 594 1153 
L 594 3053 
L 172 3053 
L 172 3500 
L 594 3500 
L 594 4494 
L 1172 4494 
z
" transform="scale(0.015625)"/>
       <path id="DejaVuSans-6d" d="M 3328 2828 
Q 3544 3216 3844 3400 
Q 4144 3584 4550 3584 
Q 5097 3584 5394 3201 
Q 5691 2819 5691 2113 
L 5691 0 
L 5113 0 
L 5113 2094 
Q 5113 2597 4934 2840 
Q 4756 3084 4391 3084 
Q 3944 3084 3684 2787 
Q 3425 2491 3425 1978 
L 3425 0 
L 2847 0 
L 2847 2094 
Q 2847 2600 2669 2842 
Q 2491 3084 2119 3084 
Q 1678 3084 1418 2786 
Q 1159 2488 1159 1978 
L 1159 0 
L 581 0 
L 581 3500 
L 1159 3500 
L 1159 2956 
Q 1356 3278 1631 3431 
Q 1906 3584 2284 3584 
Q 2666 3584 2933 3390 
Q 3200 3197 3328 2828 
z
" transform="scale(0.015625)"/>
       <path id="DejaVuSans-28" d="M 1984 4856 
Q 1566 4138 1362 3434 
Q 1159 2731 1159 2009 
Q 1159 1288 1364 580 
Q 1569 -128 1984 -844 
L 1484 -844 
Q 1016 -109 783 600 
Q 550 1309 550 2009 
Q 550 2706 781 3412 
Q 1013 4119 1484 4856 
L 1984 4856 
z
" transform="scale(0.015625)"/>
       <path id="DejaVuSans-6e" d="M 3513 2113 
L 3513 0 
L 2938 0 
L 2938 2094 
Q 2938 2591 2744 2837 
Q 2550 3084 2163 3084 
Q 1697 3084 1428 2787 
Q 1159 2491 1159 1978 
L 1159 0 
L 581 0 
L 581 3500 
L 1159 3500 
L 1159 2956 
Q 1366 3272 1645 3428 
Q 1925 3584 2291 3584 
Q 2894 3584 3203 3211 
Q 3513 2838 3513 2113 
z
" transform="scale(0.015625)"/>
       <path id="DejaVuSans-6f" d="M 1959 3097 
Q 1497 3097 1228 2736 
Q 959 2375 959 1747 
Q 959 1119 1226 758 
Q 1494 397 1959 397 
Q 2419 397 2687 759 
Q 2956 1122 2956 1747 
Q 2956 2369 2687 2733 
Q 2419 3097 1959 3097 
z
M 1959 3584 
Q 2709 3584 3137 3096 
Q 3566 2609 3566 1747 
Q 3566 888 3137 398 
Q 2709 -91 1959 -91 
Q 1206 -91 779 398 
Q 353 888 353 1747 
Q 353 2609 779 3096 
Q 1206 3584 1959 3584 
z
" transform="scale(0.015625)"/>
       <path id="DejaVuSans-63" d="M 3122 3366 
L 3122 2828 
Q 2878 2963 2633 3030 
Q 2388 3097 2138 3097 
Q 1578 3097 1268 2742 
Q 959 2388 959 1747 
Q 959 1106 1268 751 
Q 1578 397 2138 397 
Q 2388 397 2633 464 
Q 2878 531 3122 666 
L 3122 134 
Q 2881 22 2623 -34 
Q 2366 -91 2075 -91 
Q 1284 -91 818 406 
Q 353 903 353 1747 
Q 353 2603 823 3093 
Q 1294 3584 2113 3584 
Q 2378 3584 2631 3529 
Q 2884 3475 3122 3366 
z
" transform="scale(0.015625)"/>
       <path id="DejaVuSans-64" d="M 2906 2969 
L 2906 4863 
L 3481 4863 
L 3481 0 
L 2906 0 
L 2906 525 
Q 2725 213 2448 61 
Q 2172 -91 1784 -91 
Q 1150 -91 751 415 
Q 353 922 353 1747 
Q 353 2572 751 3078 
Q 1150 3584 1784 3584 
Q 2172 3584 2448 3432 
Q 2725 3281 2906 2969 
z
M 947 1747 
Q 947 1113 1208 752 
Q 1469 391 1925 391 
Q 2381 391 2643 752 
Q 2906 1113 2906 1747 
Q 2906 2381 2643 2742 
Q 2381 3103 1925 3103 
Q 1469 3103 1208 2742 
Q 947 2381 947 1747 
z
" transform="scale(0.015625)"/>
       <path id="DejaVuSans-29" d="M 513 4856 
L 1013 4856 
Q 1481 4119 1714 3412 
Q 1947 2706 1947 2009 
Q 1947 1309 1714 600 
Q 1481 -109 1013 -844 
L 513 -844 
Q 928 -128 1133 580 
Q 1338 1288 1338 2009 
Q 1338 2731 1133 3434 
Q 928 4138 513 4856 
z
" transform="scale(0.015625)"/>
      </defs>
      <use xlink:href="#DejaVuSans-74"/>
      <use xlink:href="#DejaVuSans-69" x="39.208984"/>
      <use xlink:href="#DejaVuSans-6d" x="66.992188"/>
      <use xlink:href="#DejaVuSans-65" x="164.404297"/>
      <use xlink:href="#DejaVuSans-20" x="225.927734"/>
      <use xlink:href="#DejaVuSans-28" x="257.714844"/>
      <use xlink:href="#DejaVuSans-69" x="296.728516"/>
      <use xlink:href="#DejaVuSans-6e" x="324.511719"/>
      <use xlink:href="#DejaVuSans-20" x="387.890625"/>
      <use xlink:href="#DejaVuSans-6e" x="419.677734"/>
      <use xlink:href="#DejaVuSans-61" x="483.056641"/>
      <use xlink:href="#DejaVuSans-6e" x="544.335938"/>
      <use xlink:href="#DejaVuSans-6f" x="607.714844"/>
      <use xlink:href="#DejaVuSans-73" x="668.896484"/>
      <use xlink:href="#DejaVuSans-65" x="720.996094"/>
      <use xlink:href="#DejaVuSans-63" x="782.519531"/>
      <use xlink:href="#DejaVuSans-6f" x="837.5"/>
      <use xlink:href="#DejaVuSans-6e" x="898.681641"/>
      <use xlink:href="#DejaVuSans-64" x="962.060547"/>
      <use xlink:href="#DejaVuSans-73" x="1025.537109"/>
      <use xlink:href="#DejaVuSans-29" x="1077.636719"/>
     </g>
    </g>
   </g>
   <g id="line2d_15">
    <path d="M 73.832727 294.568274 
L 73.85209 293.860086 
L 73.871453 294.743022 
L 73.929541 294.237173 
L 73.968266 295.442014 
L 73.987629 292.549477 
L 74.006992 295.45581 
L 74.06508 294.117609 
L 74.142531 295.460408 
L 74.161893 286.180378 
L 74.200619 295.478803 
L 74.239344 295.478803 
L 74.27807 295.465007 
L 74.297432 292.636851 
L 74.374883 293.791106 
L 74.452334 295.483401 
L 74.471697 292.268961 
L 74.549148 295.478803 
L 74.56851 295.474204 
L 74.587873 286.336731 
L 74.645961 295.478803 
L 74.665324 295.478803 
L 74.684686 295.478803 
L 74.704049 284.534069 
L 74.7815 295.460408 
L 74.820225 295.478803 
L 74.839588 293.059925 
L 74.917039 295.483401 
L 74.975127 295.469605 
L 74.99449 286.065412 
L 75.071941 295.483401 
L 75.168754 295.478803 
L 75.188117 286.180378 
L 75.226842 295.483401 
L 75.265568 295.474204 
L 75.381744 295.478803 
L 75.401107 285.164081 
L 75.478558 295.469605 
L 75.633459 295.478803 
L 75.652822 285.072109 
L 75.71091 295.483401 
L 75.730273 295.465007 
L 75.9239 295.474204 
L 75.943263 291.822894 
L 75.981988 295.483401 
L 76.020713 295.465007 
L 76.253066 295.465007 
L 76.272429 285.16868 
L 76.311154 295.478803 
L 76.349879 295.474204 
L 76.582232 295.465007 
L 76.64032 295.478803 
L 76.659683 283.416603 
L 76.737134 295.469605 
L 77.027574 295.488 
L 77.085662 295.483401 
L 77.105025 284.718014 
L 77.182476 295.483401 
L 77.434191 295.474204 
L 77.589093 295.483401 
L 77.608456 282.510673 
L 77.685906 295.469605 
L 78.169974 295.474204 
L 78.189337 282.942944 
L 78.2087 295.478803 
L 78.266788 295.474204 
L 78.634679 295.483401 
L 78.654042 295.133906 
L 78.731493 295.483401 
L 78.828306 295.460408 
L 78.847669 288.111801 
L 78.867032 295.478803 
L 78.92512 295.478803 
L 79.583452 295.483401 
L 79.602815 282.161177 
L 79.680265 295.478803 
L 80.164333 295.474204 
L 80.454774 295.478803 
L 80.474137 288.774004 
L 80.551587 295.478803 
L 81.461635 295.483401 
L 81.480997 281.002323 
L 81.558448 295.483401 
L 82.623397 295.465007 
L 82.64276 278.730601 
L 82.662123 295.483401 
L 82.720211 295.469605 
L 83.223641 295.483401 
L 83.688346 295.483401 
L 83.959424 295.478803 
L 83.978787 283.586752 
L 84.056238 295.469605 
L 84.211139 295.478803 
L 85.489078 295.474204 
L 85.508441 285.003129 
L 85.547166 295.478803 
L 85.585892 295.474204 
L 87.251085 295.483401 
L 87.270447 275.511562 
L 87.347898 295.474204 
L 87.599614 295.474204 
L 89.284169 295.465007 
L 89.303532 274.205552 
L 89.342257 295.483401 
L 89.380983 295.465007 
L 89.593973 295.483401 
L 91.607694 295.474204 
L 91.627057 279.972231 
L 91.665782 295.478803 
L 91.704508 295.478803 
L 94.279748 295.478803 
L 94.299111 266.015396 
L 94.376562 295.469605 
L 97.358419 295.474204 
L 97.377782 255.705273 
L 97.397144 295.478803 
L 97.455233 295.478803 
L 97.919938 295.483401 
L 98.404005 295.478803 
L 100.901795 295.474204 
L 100.921157 257.103256 
L 100.94052 295.478803 
L 100.998608 295.478803 
L 104.967964 295.478803 
L 104.987326 251.998779 
L 105.045415 295.483401 
L 105.064777 295.460408 
L 105.161591 295.478803 
L 105.180953 295.405225 
L 105.258404 295.45581 
L 105.393943 295.478803 
L 105.529482 295.474204 
L 105.974825 295.483401 
L 106.168452 295.478803 
L 109.653739 295.478803 
L 109.673102 241.955377 
L 109.750553 295.478803 
L 110.253983 295.465007 
L 110.466973 295.483401 
L 110.931678 295.478803 
L 111.37702 295.478803 
L 111.861088 295.465007 
L 112.112803 295.478803 
L 112.364519 295.478803 
L 115.036572 295.478803 
L 115.055935 231.649852 
L 115.133386 295.474204 
L 115.152749 295.409823 
L 115.2302 295.474204 
L 115.714267 295.478803 
L 118.483135 295.478803 
L 118.502497 295.317851 
L 118.579948 295.478803 
L 119.025291 295.474204 
L 119.296369 295.483401 
L 119.45127 295.478803 
L 119.470633 295.244273 
L 119.548084 295.483401 
L 120.051514 295.474204 
L 120.535582 295.478803 
L 121.232639 295.478803 
L 121.252002 236.156507 
L 121.329453 295.478803 
L 124.621114 295.460408 
L 124.640476 295.239674 
L 124.659839 295.483401 
L 124.717927 295.469605 
L 124.95028 295.465007 
L 125.376259 295.469605 
L 125.569886 295.478803 
L 125.821602 295.478803 
L 128.358116 295.469605 
L 128.377479 226.614355 
L 128.416205 295.478803 
L 128.45493 295.478803 
L 134.283105 295.474204 
L 134.302468 295.322449 
L 134.379919 295.478803 
L 134.844624 295.478803 
L 136.548542 295.469605 
L 136.567905 224.899067 
L 136.606631 295.483401 
L 136.645356 295.478803 
L 137.090698 295.474204 
L 137.361776 295.483401 
L 140.285545 295.478803 
L 140.304908 295.322449 
L 140.382359 295.483401 
L 140.885789 295.460408 
L 141.079416 295.478803 
L 141.195593 295.483401 
L 141.67966 295.478803 
L 145.978182 295.478803 
L 145.997545 231.144003 
L 146.074995 295.474204 
L 146.559063 295.478803 
L 149.695822 295.478803 
L 149.715185 295.317851 
L 149.792636 295.478803 
L 149.9669 295.483401 
L 150.141164 295.478803 
L 150.160527 294.834995 
L 150.237978 295.483401 
L 150.354154 295.469605 
L 150.605869 295.474204 
L 150.876947 295.460408 
L 151.070574 295.478803 
L 151.535279 295.478803 
L 156.821299 295.474204 
L 156.840662 225.717623 
L 156.89875 295.478803 
L 156.918113 295.478803 
L 157.382818 295.478803 
L 169.290884 295.478803 
L 169.310246 218.369016 
L 169.387697 295.483401 
L 169.871765 295.474204 
L 170.33647 295.478803 
L 170.820538 295.474204 
L 171.26588 295.483401 
L 171.401419 295.469605 
L 171.672497 295.483401 
L 171.924212 295.478803 
L 172.369554 295.483401 
L 172.563182 295.474204 
L 172.795534 295.474204 
L 172.814897 295.446612 
L 172.853622 295.478803 
L 172.872985 295.138504 
L 172.950436 295.469605 
L 173.144063 295.478803 
L 177.171506 295.483401 
L 177.190869 295.175293 
L 177.26832 295.483401 
L 177.520035 295.478803 
L 177.98474 295.478803 
L 178.004103 295.432816 
L 178.100916 295.483401 
L 178.352632 295.483401 
L 178.856062 295.469605 
L 179.359493 295.478803 
L 181.024686 295.478803 
L 181.044048 295.28566 
L 181.121499 295.478803 
L 181.566841 295.478803 
L 182.031546 295.478803 
L 182.515614 295.483401 
L 182.728604 295.465007 
L 182.864143 295.469605 
L 183.038407 295.478803 
L 183.503112 295.478803 
L 183.619289 295.478803 
L 183.638651 206.260829 
L 183.716102 295.478803 
L 184.20017 295.474204 
L 184.664875 295.478803 
L 185.12958 295.478803 
L 190.822216 295.483401 
L 190.841579 295.087919 
L 190.91903 295.478803 
L 200.096954 295.478803 
L 200.116317 194.479146 
L 200.174405 295.483401 
L 200.193768 295.483401 
L 212.72144 295.478803 
L 212.740803 294.526887 
L 212.779529 295.483401 
L 212.818254 295.478803 
L 213.166783 295.469605 
L 213.186146 295.138504 
L 213.205508 295.483401 
L 213.263596 295.478803 
L 219.053046 295.478803 
L 219.072409 176.857205 
L 219.14986 295.469605 
L 219.401575 295.478803 
L 219.86628 295.478803 
L 220.679514 295.483401 
L 220.698877 295.317851 
L 220.776328 295.478803 
L 221.028043 295.469605 
L 221.241033 295.483401 
L 221.260395 295.336245 
L 221.337846 295.483401 
L 221.821914 295.478803 
L 225.481466 295.478803 
L 225.500829 295.235075 
L 225.578279 295.442014 
L 225.713818 295.478803 
L 226.139798 295.478803 
L 226.37215 295.478803 
L 226.488327 295.442014 
L 226.507689 291.248065 
L 226.527052 295.488 
L 226.58514 295.474204 
L 227.01112 295.465007 
L 227.398374 295.478803 
L 227.843716 295.478803 
L 228.327784 295.474204 
L 228.811852 295.483401 
L 229.29592 295.478803 
L 229.779987 295.483401 
L 229.954252 295.474204 
L 230.205967 295.478803 
L 230.844936 295.483401 
L 230.864299 294.586669 
L 230.94175 295.478803 
L 231.096652 295.446612 
L 231.251553 295.478803 
L 240.584379 295.474204 
L 240.603742 295.350041 
L 240.681193 295.474204 
L 240.855457 295.483401 
L 240.87482 162.06342 
L 240.952271 295.478803 
L 241.416976 295.478803 
L 241.746142 295.478803 
L 241.765504 295.317851 
L 241.842955 295.478803 
L 242.327023 295.474204 
L 242.791728 295.474204 
L 248.213286 295.483401 
L 248.232649 295.156899 
L 248.3101 295.478803 
L 255.551753 295.478803 
L 255.571116 295.345443 
L 255.648567 295.483401 
L 256.132635 295.478803 
L 256.38435 295.483401 
L 256.403712 295.28566 
L 256.481163 295.478803 
L 259.463021 295.478803 
L 259.482383 295.267266 
L 259.559834 295.474204 
L 260.043902 295.478803 
L 260.198803 295.478803 
L 260.663509 295.483401 
L 261.166939 295.460408 
L 261.341203 295.483401 
L 263.916444 295.478803 
L 263.935806 295.271865 
L 264.013257 295.474204 
L 264.400511 295.478803 
L 264.419874 295.382232 
L 264.497325 295.465007 
L 264.690952 295.488 
L 264.96203 295.478803 
L 265.407372 295.474204 
L 265.67845 295.483401 
L 265.813989 295.474204 
L 265.930165 295.478803 
L 265.949528 139.999205 
L 266.007616 295.483401 
L 266.026979 295.478803 
L 266.181881 295.469605 
L 266.336782 295.478803 
L 266.356145 295.313252 
L 266.433596 295.469605 
L 266.917664 295.478803 
L 267.363006 295.478803 
L 267.827711 295.478803 
L 273.03628 295.469605 
L 273.055642 295.359238 
L 273.075005 295.478803 
L 273.133093 295.474204 
L 273.578436 295.469605 
L 274.023778 295.469605 
L 274.507846 295.483401 
L 274.662747 295.478803 
L 275.10809 295.488 
L 275.321079 295.432816 
L 275.456618 295.478803 
L 276.792645 295.474204 
L 276.812008 295.225878 
L 276.831371 295.478803 
L 276.889459 295.478803 
L 277.141174 295.478803 
L 277.605879 295.478803 
L 293.231585 295.478803 
L 293.250948 295.225878 
L 293.328399 295.478803 
L 293.715653 295.478803 
L 293.735016 295.248871 
L 293.812467 295.478803 
L 294.064182 295.478803 
L 294.761239 295.469605 
L 294.780602 121.025268 
L 294.819328 295.478803 
L 294.858053 295.478803 
L 295.322758 295.474204 
L 295.632561 295.474204 
L 295.651924 294.908573 
L 295.690649 295.483401 
L 295.729375 295.478803 
L 306.708031 295.478803 
L 306.727394 295.198286 
L 306.804845 295.474204 
L 307.250187 295.469605 
L 307.366363 295.483401 
L 307.869794 295.460408 
L 308.044058 295.474204 
L 308.4894 295.478803 
L 310.638661 295.478803 
L 310.658024 295.138504 
L 310.696749 295.483401 
L 310.735475 295.478803 
L 311.471258 295.478803 
L 311.49062 295.184491 
L 311.568071 295.483401 
L 312.052139 295.478803 
L 312.904098 295.478803 
L 312.923461 295.258069 
L 313.000912 295.478803 
L 313.639881 295.483401 
L 313.659244 295.28566 
L 313.736694 295.478803 
L 318.093304 295.478803 
L 318.112667 295.239674 
L 318.190118 295.469605 
L 318.383745 295.478803 
L 318.654823 295.469605 
L 318.925901 295.478803 
L 320.687907 295.478803 
L 320.70727 295.212082 
L 320.784721 295.460408 
L 320.958985 295.478803 
L 321.384965 295.474204 
L 321.63668 295.474204 
L 322.082022 295.469605 
L 322.488639 295.474204 
L 322.662903 295.469605 
L 322.77908 295.474204 
L 322.992069 295.483401 
L 323.011432 295.405225 
L 323.088883 295.474204 
L 323.553588 295.474204 
L 326.399906 295.478803 
L 326.419269 295.313252 
L 326.49672 295.483401 
L 326.70971 295.465007 
L 326.942062 295.474204 
L 327.096964 295.460408 
L 327.251866 295.478803 
L 327.716571 295.474204 
L 327.910198 295.469605 
L 327.92956 93.999133 
L 327.968286 295.478803 
L 328.007011 295.469605 
L 328.491079 295.478803 
L 328.936421 295.478803 
L 329.381764 295.478803 
L 329.652841 295.469605 
L 329.827106 295.469605 
L 333.351119 295.469605 
L 333.370482 295.290259 
L 333.389844 295.478803 
L 333.447932 295.469605 
L 333.622197 295.478803 
L 333.854549 295.478803 
L 334.261166 295.474204 
L 334.493519 295.483401 
L 334.977586 295.469605 
L 335.190576 295.483401 
L 335.306753 295.465007 
L 335.326115 295.478803 
L 335.829546 295.465007 
L 336.00381 295.478803 
L 341.309192 295.478803 
L 341.328555 295.023539 
L 341.406006 295.469605 
L 341.657721 295.478803 
L 341.831986 295.478803 
L 342.72267 295.451211 
L 342.742033 294.062425 
L 342.761396 295.483401 
L 342.819484 295.483401 
L 345.026833 295.474204 
L 345.046195 295.189089 
L 345.084921 295.483401 
L 345.123646 295.469605 
L 345.530263 295.478803 
L 345.956243 295.478803 
L 346.033693 295.25347 
L 346.091782 295.474204 
L 366.035372 295.478803 
L 366.054735 53.568 
L 366.132186 295.478803 
L 366.30645 295.474204 
L 366.558165 295.478803 
L 366.73243 295.478803 
L 367.080958 295.474204 
L 367.216497 295.478803 
L 367.681202 295.474204 
L 368.145907 295.483401 
L 368.397623 295.469605 
L 368.649338 295.469605 
L 369.036592 295.478803 
L 369.152768 295.469605 
L 369.423846 295.478803 
L 376.355696 295.483401 
L 376.375059 295.041933 
L 376.45251 295.478803 
L 376.859127 295.478803 
L 377.033391 295.478803 
L 377.323832 295.483401 
L 377.343194 295.428218 
L 377.440008 295.469605 
L 377.691723 295.478803 
L 378.175791 295.474204 
L 382.861566 295.474204 
L 382.880929 282.110592 
L 382.900292 295.483401 
L 382.95838 295.469605 
L 383.210095 295.483401 
L 383.403722 295.474204 
L 383.829702 295.483401 
L 383.945878 295.478803 
L 388.302488 295.478803 
L 388.32185 294.333744 
L 388.379939 295.488 
L 388.399301 295.478803 
L 388.844644 295.483401 
L 398.487273 295.483401 
L 398.487273 295.483401 
" clip-path="url(#p59dc9de2ff)" style="fill: none; stroke: #800080; stroke-width: 1.5; stroke-linecap: square"/>
   </g>
   <g id="patch_3">
    <path d="M 57.6 307.584 
L 57.6 41.472 
" style="fill: none; stroke: #000000; stroke-width: 0.8; stroke-linejoin: miter; stroke-linecap: square"/>
   </g>
   <g id="patch_4">
    <path d="M 414.72 307.584 
L 414.72 41.472 
" style="fill: none; stroke: #000000; stroke-width: 0.8; stroke-linejoin: miter; stroke-linecap: square"/>
   </g>
   <g id="patch_5">
    <path d="M 57.6 307.584 
L 414.72 307.584 
" style="fill: none; stroke: #000000; stroke-width: 0.8; stroke-linejoin: miter; stroke-linecap: square"/>
   </g>
   <g id="patch_6">
    <path d="M 57.6 41.472 
L 414.72 41.472 
" style="fill: none; stroke: #000000; stroke-width: 0.8; stroke-linejoin: miter; stroke-linecap: square"/>
   </g>
  </g>
 </g>
 <defs>
  <clipPath id="p59dc9de2ff">
   <rect x="57.6" y="41.472" width="357.12" height="266.112"/>
  </clipPath>
 </defs>
</svg>
